<mxfile host="app.diagrams.net" agent="Mozilla/5.0 (Windows NT 10.0; Win64; x64) AppleWebKit/537.36 (KHTML, like Gecko) Chrome/129.0.0.0 Safari/537.36" version="24.7.17">
  <diagram name="Page-1" id="FL1dpMUzVQ1ufFgPg9Rz">
    <mxGraphModel dx="1383" dy="1703" grid="1" gridSize="10" guides="1" tooltips="1" connect="1" arrows="1" fold="1" page="1" pageScale="1" pageWidth="850" pageHeight="1100" math="0" shadow="0">
      <root>
        <mxCell id="0" />
        <mxCell id="1" parent="0" />
        <mxCell id="Lj5jiR5ULHrEoqdRoK43-52" value="" style="rounded=0;whiteSpace=wrap;html=1;" parent="1" vertex="1">
          <mxGeometry x="1120" y="222.5" width="375" height="240" as="geometry" />
        </mxCell>
        <mxCell id="Lj5jiR5ULHrEoqdRoK43-1" value="&lt;div&gt;&lt;b&gt;Deal Stages&lt;/b&gt;&lt;/div&gt;&lt;div&gt;&lt;br&gt;&lt;/div&gt;&lt;table style=&quot;table-layout: fixed; font-size: 10pt; font-family: Arial; width: 0px; border-collapse: collapse; border: none;&quot; data-sheets-root=&quot;1&quot; border=&quot;1&quot; dir=&quot;ltr&quot; cellpadding=&quot;0&quot; cellspacing=&quot;0&quot; xmlns=&quot;http://www.w3.org/1999/xhtml&quot;&gt;&lt;colgroup&gt;&lt;col width=&quot;272&quot;&gt;&lt;/colgroup&gt;&lt;tbody&gt;&lt;tr style=&quot;height: 21px;&quot;&gt;&lt;td style=&quot;border: 1px solid rgb(204, 204, 204); overflow: hidden; padding: 2px 3px; vertical-align: bottom; font-size: 12pt; overflow-wrap: break-word;&quot; data-sheets-value=&quot;{&amp;quot;1&amp;quot;:2,&amp;quot;2&amp;quot;:&amp;quot;Pending Renewal&amp;quot;}&quot;&gt;Go live&lt;/td&gt;&lt;/tr&gt;&lt;tr style=&quot;height: 21px;&quot;&gt;&lt;td style=&quot;border: 1px solid rgb(204, 204, 204); overflow: hidden; padding: 2px 3px; vertical-align: bottom; font-size: 12pt;&quot; data-sheets-value=&quot;{&amp;quot;1&amp;quot;:2,&amp;quot;2&amp;quot;:&amp;quot;3rd Month Pulse check&amp;quot;}&quot;&gt;3rd Month Pulse check&lt;/td&gt;&lt;/tr&gt;&lt;tr style=&quot;height: 21px;&quot;&gt;&lt;td style=&quot;border: 1px solid rgb(204, 204, 204); overflow: hidden; padding: 2px 3px; vertical-align: bottom; font-size: 12pt;&quot; data-sheets-value=&quot;{&amp;quot;1&amp;quot;:2,&amp;quot;2&amp;quot;:&amp;quot;6th Month Pulse check&amp;quot;}&quot;&gt;6th Month Pulse check&lt;/td&gt;&lt;/tr&gt;&lt;tr style=&quot;height: 23px;&quot;&gt;&lt;td style=&quot;border: 1px solid rgb(204, 204, 204); overflow: hidden; padding: 2px 3px; vertical-align: bottom; font-size: 12pt;&quot; data-sheets-value=&quot;{&amp;quot;1&amp;quot;:2,&amp;quot;2&amp;quot;:&amp;quot;9th Month Pulse check&amp;quot;}&quot;&gt;9th Month Pulse check&lt;/td&gt;&lt;/tr&gt;&lt;tr style=&quot;height: 21px;&quot;&gt;&lt;td style=&quot;border: 1px solid rgb(204, 204, 204); overflow: hidden; padding: 2px 3px; vertical-align: bottom; font-size: 12pt;&quot; data-sheets-value=&quot;{&amp;quot;1&amp;quot;:2,&amp;quot;2&amp;quot;:&amp;quot;12th Month Pulse check&amp;quot;}&quot;&gt;12th Month Pulse check&lt;/td&gt;&lt;/tr&gt;&lt;tr style=&quot;height: 21px;&quot;&gt;&lt;td style=&quot;border: 1px solid rgb(204, 204, 204); overflow: hidden; padding: 2px 3px; vertical-align: top; font-size: 12pt;&quot; data-sheets-value=&quot;{&amp;quot;1&amp;quot;:2,&amp;quot;2&amp;quot;:&amp;quot;Contract Confirmation&amp;quot;}&quot;&gt;Accreditation Renewals&amp;nbsp;&lt;/td&gt;&lt;/tr&gt;&lt;tr style=&quot;height: 21px;&quot;&gt;&lt;td style=&quot;border: 1px solid rgb(204, 204, 204); overflow: hidden; padding: 2px 3px; vertical-align: bottom; font-size: 12pt;&quot; data-sheets-value=&quot;{&amp;quot;1&amp;quot;:2,&amp;quot;2&amp;quot;:&amp;quot;Contract Signed&amp;quot;}&quot;&gt;Contract Review&amp;nbsp;&lt;br&gt;&lt;/td&gt;&lt;/tr&gt;&lt;tr style=&quot;height: 21px;&quot;&gt;&lt;td style=&quot;border: 1px solid rgb(204, 204, 204); overflow: hidden; padding: 2px 3px; vertical-align: bottom; font-size: 12pt;&quot; data-sheets-value=&quot;{&amp;quot;1&amp;quot;:2,&amp;quot;2&amp;quot;:&amp;quot;Accreditation Renewals&amp;quot;}&quot;&gt;Contract Signed&lt;br&gt;&lt;/td&gt;&lt;/tr&gt;&lt;tr style=&quot;height: 21px;&quot;&gt;&lt;td style=&quot;border: 1px solid rgb(204, 204, 204); overflow: hidden; padding: 2px 3px; vertical-align: bottom; font-size: 12pt;&quot; data-sheets-value=&quot;{&amp;quot;1&amp;quot;:2,&amp;quot;2&amp;quot;:&amp;quot;Closed Won Pending Payment&amp;quot;}&quot;&gt;Churn Recovery&lt;/td&gt;&lt;/tr&gt;&lt;tr style=&quot;height: 21px;&quot;&gt;&lt;td style=&quot;border: 1px solid rgb(204, 204, 204); overflow: hidden; padding: 2px 3px; vertical-align: bottom; font-size: 12pt;&quot; data-sheets-value=&quot;{&amp;quot;1&amp;quot;:2,&amp;quot;2&amp;quot;:&amp;quot;Closed For Future Date&amp;quot;}&quot;&gt;Closed For Future Date&lt;/td&gt;&lt;/tr&gt;&lt;tr style=&quot;height: 21px;&quot;&gt;&lt;td style=&quot;border: 1px solid rgb(204, 204, 204); overflow: hidden; padding: 2px 3px; vertical-align: bottom; font-size: 12pt;&quot; data-sheets-value=&quot;{&amp;quot;1&amp;quot;:2,&amp;quot;2&amp;quot;:&amp;quot;Closed Lost&amp;quot;}&quot;&gt;Closed Lost&lt;/td&gt;&lt;/tr&gt;&lt;/tbody&gt;&lt;/table&gt;" style="rounded=0;whiteSpace=wrap;html=1;align=left;" parent="1" vertex="1">
          <mxGeometry x="550" y="145" width="280" height="305" as="geometry" />
        </mxCell>
        <mxCell id="Lj5jiR5ULHrEoqdRoK43-2" value="&lt;h1 style=&quot;margin-top: 0px;&quot;&gt;CS Top-ups pipeline&lt;/h1&gt;&lt;p&gt;For Re-topup or any sales related&amp;nbsp;&lt;/p&gt;" style="text;html=1;whiteSpace=wrap;overflow=hidden;rounded=0;" parent="1" vertex="1">
          <mxGeometry x="120" y="70" width="250" height="120" as="geometry" />
        </mxCell>
        <mxCell id="Lj5jiR5ULHrEoqdRoK43-3" value="&lt;h1 style=&quot;margin-top: 0px;&quot;&gt;STIC Renewal&lt;/h1&gt;&lt;h1 style=&quot;margin-top: 0px;&quot;&gt;&lt;p style=&quot;font-size: 12px; font-weight: 400;&quot;&gt;For Activity tracking in Pulse checks&lt;/p&gt;&lt;/h1&gt;" style="text;whiteSpace=wrap;html=1;" parent="1" vertex="1">
          <mxGeometry x="550" y="70" width="230" height="70" as="geometry" />
        </mxCell>
        <mxCell id="Lj5jiR5ULHrEoqdRoK43-5" value="&lt;div&gt;&lt;b&gt;Deal Stages&lt;/b&gt;&lt;/div&gt;&lt;div&gt;&lt;br&gt;&lt;/div&gt;&lt;table style=&quot;table-layout: fixed; font-size: 10pt; font-family: Arial; width: 0px; border-collapse: collapse; border: none;&quot; data-sheets-root=&quot;1&quot; border=&quot;1&quot; dir=&quot;ltr&quot; cellpadding=&quot;0&quot; cellspacing=&quot;0&quot; xmlns=&quot;http://www.w3.org/1999/xhtml&quot;&gt;&lt;colgroup&gt;&lt;col width=&quot;272&quot;&gt;&lt;/colgroup&gt;&lt;tbody&gt;&lt;tr style=&quot;height: 21px;&quot;&gt;&lt;td style=&quot;border: 1px solid rgb(204, 204, 204); overflow: hidden; padding: 2px 3px; vertical-align: bottom; font-size: 12pt; overflow-wrap: break-word;&quot; data-sheets-value=&quot;{&amp;quot;1&amp;quot;:2,&amp;quot;2&amp;quot;:&amp;quot;Pending Renewal&amp;quot;}&quot;&gt;&lt;br&gt;&lt;/td&gt;&lt;/tr&gt;&lt;tr style=&quot;height: 21px;&quot;&gt;&lt;td style=&quot;border: 1px solid rgb(204, 204, 204); overflow: hidden; padding: 2px 3px; vertical-align: bottom; font-size: 12pt;&quot; data-sheets-value=&quot;{&amp;quot;1&amp;quot;:2,&amp;quot;2&amp;quot;:&amp;quot;3rd Month Pulse check&amp;quot;}&quot;&gt;TopUp Requested&lt;/td&gt;&lt;/tr&gt;&lt;tr style=&quot;height: 21px;&quot;&gt;&lt;td style=&quot;border: 1px solid rgb(204, 204, 204); overflow: hidden; padding: 2px 3px; vertical-align: bottom;&quot; data-sheets-value=&quot;{&amp;quot;1&amp;quot;:2,&amp;quot;2&amp;quot;:&amp;quot;6th Month Pulse check&amp;quot;}&quot;&gt;&lt;span style=&quot;font-size: 16px;&quot;&gt;Closed Won Pending Payment&lt;/span&gt;&lt;br&gt;&lt;/td&gt;&lt;/tr&gt;&lt;tr style=&quot;height: 21px;&quot;&gt;&lt;td style=&quot;border: 1px solid rgb(204, 204, 204); overflow: hidden; padding: 2px 3px; vertical-align: bottom; font-size: 12pt; overflow-wrap: break-word;&quot; data-sheets-value=&quot;{&amp;quot;1&amp;quot;:2,&amp;quot;2&amp;quot;:&amp;quot;Closed Won Partial Payment&amp;quot;}&quot;&gt;Closed Won Partial Payment&lt;/td&gt;&lt;/tr&gt;&lt;tr style=&quot;height: 21px;&quot;&gt;&lt;td style=&quot;border: 1px solid rgb(204, 204, 204); overflow: hidden; padding: 2px 3px; vertical-align: bottom; font-size: 12pt;&quot; data-sheets-value=&quot;{&amp;quot;1&amp;quot;:2,&amp;quot;2&amp;quot;:&amp;quot;Closed Won&amp;quot;}&quot;&gt;Closed Won&lt;/td&gt;&lt;/tr&gt;&lt;tr style=&quot;height: 21px;&quot;&gt;&lt;td style=&quot;border: 1px solid rgb(204, 204, 204); overflow: hidden; padding: 2px 3px; vertical-align: bottom; font-size: 12pt;&quot; data-sheets-value=&quot;{&amp;quot;1&amp;quot;:2,&amp;quot;2&amp;quot;:&amp;quot;Closed For Future Date&amp;quot;}&quot;&gt;Closed For Future Date&lt;/td&gt;&lt;/tr&gt;&lt;tr style=&quot;height: 21px;&quot;&gt;&lt;td style=&quot;border: 1px solid rgb(204, 204, 204); overflow: hidden; padding: 2px 3px; vertical-align: bottom; font-size: 12pt;&quot; data-sheets-value=&quot;{&amp;quot;1&amp;quot;:2,&amp;quot;2&amp;quot;:&amp;quot;Closed Lost&amp;quot;}&quot;&gt;Closed Lost&lt;br&gt;&lt;/td&gt;&lt;/tr&gt;&lt;/tbody&gt;&lt;/table&gt;" style="rounded=0;whiteSpace=wrap;html=1;align=left;" parent="1" vertex="1">
          <mxGeometry x="120" y="160" width="280" height="220" as="geometry" />
        </mxCell>
        <mxCell id="Lj5jiR5ULHrEoqdRoK43-6" value="&lt;b&gt;&lt;font style=&quot;font-size: 72px;&quot;&gt;PIPELINES&lt;/font&gt;&lt;/b&gt;" style="text;html=1;align=center;verticalAlign=middle;whiteSpace=wrap;rounded=0;" parent="1" vertex="1">
          <mxGeometry x="270" width="60" height="30" as="geometry" />
        </mxCell>
        <mxCell id="Lj5jiR5ULHrEoqdRoK43-7" value="&lt;b&gt;&lt;font style=&quot;font-size: 72px;&quot;&gt;PROPERTIES&lt;/font&gt;&lt;/b&gt;" style="text;html=1;align=center;verticalAlign=middle;whiteSpace=wrap;rounded=0;" parent="1" vertex="1">
          <mxGeometry x="1120" width="60" height="30" as="geometry" />
        </mxCell>
        <mxCell id="Lj5jiR5ULHrEoqdRoK43-10" value="&lt;font style=&quot;font-size: 18px;&quot;&gt;Deal Name&lt;/font&gt;" style="rounded=0;whiteSpace=wrap;html=1;fillColor=#FF681C;" parent="1" vertex="1">
          <mxGeometry x="1560" y="60" width="120" height="60" as="geometry" />
        </mxCell>
        <mxCell id="Lj5jiR5ULHrEoqdRoK43-11" value="&lt;h1 style=&quot;margin-top: 0px;&quot;&gt;CS TOPUP PIPELINES&lt;/h1&gt;&lt;p&gt;For Re-topup or any sales related&amp;nbsp;&lt;/p&gt;" style="text;html=1;whiteSpace=wrap;overflow=hidden;rounded=0;" parent="1" vertex="1">
          <mxGeometry x="920" y="50" width="350" height="80" as="geometry" />
        </mxCell>
        <mxCell id="Lj5jiR5ULHrEoqdRoK43-12" value="Deal Stage" style="rounded=0;whiteSpace=wrap;html=1;fillColor=#FF681C;" parent="1" vertex="1">
          <mxGeometry x="1560" y="197.5" width="120" height="60" as="geometry" />
        </mxCell>
        <mxCell id="Lj5jiR5ULHrEoqdRoK43-13" value="Pipeline" style="rounded=0;whiteSpace=wrap;html=1;fillColor=#FF681C;" parent="1" vertex="1">
          <mxGeometry x="1560" y="267.5" width="120" height="60" as="geometry" />
        </mxCell>
        <mxCell id="Lj5jiR5ULHrEoqdRoK43-14" value="Amount" style="rounded=0;whiteSpace=wrap;html=1;fillColor=#FF681C;" parent="1" vertex="1">
          <mxGeometry x="1560" y="337.5" width="120" height="60" as="geometry" />
        </mxCell>
        <mxCell id="Lj5jiR5ULHrEoqdRoK43-15" value="Close date" style="rounded=0;whiteSpace=wrap;html=1;fillColor=#FF681C;" parent="1" vertex="1">
          <mxGeometry x="1560" y="130" width="120" height="60" as="geometry" />
        </mxCell>
        <mxCell id="Lj5jiR5ULHrEoqdRoK43-47" style="edgeStyle=orthogonalEdgeStyle;rounded=0;orthogonalLoop=1;jettySize=auto;html=1;fillColor=#FF9999;" parent="1" source="Lj5jiR5ULHrEoqdRoK43-17" edge="1">
          <mxGeometry relative="1" as="geometry">
            <mxPoint x="1110" y="240" as="targetPoint" />
          </mxGeometry>
        </mxCell>
        <mxCell id="Lj5jiR5ULHrEoqdRoK43-17" value="STIC Product" style="rounded=0;whiteSpace=wrap;html=1;fillColor=#FF9999;" parent="1" vertex="1">
          <mxGeometry x="930" y="210" width="120" height="60" as="geometry" />
        </mxCell>
        <mxCell id="Lj5jiR5ULHrEoqdRoK43-46" value="BizTreats Web" style="whiteSpace=wrap;html=1;rounded=0;fillColor=#FF9999;" parent="1" vertex="1">
          <mxGeometry x="1130" y="230" width="100" height="30" as="geometry" />
        </mxCell>
        <mxCell id="Lj5jiR5ULHrEoqdRoK43-48" value="Biz API Standard (pre-paid)" style="whiteSpace=wrap;html=1;rounded=0;fillColor=#FF9999;" parent="1" vertex="1">
          <mxGeometry x="1130" y="272" width="120" height="40" as="geometry" />
        </mxCell>
        <mxCell id="Lj5jiR5ULHrEoqdRoK43-49" value="Biz API Non-Standard (post-paid)" style="whiteSpace=wrap;html=1;rounded=0;fillColor=#FF9999;" parent="1" vertex="1">
          <mxGeometry x="1130" y="325" width="190" height="35" as="geometry" />
        </mxCell>
        <mxCell id="Lj5jiR5ULHrEoqdRoK43-53" value="BizGames" style="whiteSpace=wrap;html=1;rounded=0;fillColor=#FF9999;" parent="1" vertex="1">
          <mxGeometry x="1240" y="230" width="70" height="30" as="geometry" />
        </mxCell>
        <mxCell id="Lj5jiR5ULHrEoqdRoK43-54" value="BizRewards" style="whiteSpace=wrap;html=1;rounded=0;fillColor=#FF9999;" parent="1" vertex="1">
          <mxGeometry x="1320" y="230" width="77.5" height="30" as="geometry" />
        </mxCell>
        <mxCell id="Lj5jiR5ULHrEoqdRoK43-55" value="AnyonePay" style="whiteSpace=wrap;html=1;rounded=0;fillColor=#FF9999;" parent="1" vertex="1">
          <mxGeometry x="1410" y="230" width="70" height="30" as="geometry" />
        </mxCell>
        <mxCell id="Lj5jiR5ULHrEoqdRoK43-56" value="Pin via API standard" style="whiteSpace=wrap;html=1;rounded=0;fillColor=#FF9999;" parent="1" vertex="1">
          <mxGeometry x="1260" y="270" width="90" height="45" as="geometry" />
        </mxCell>
        <mxCell id="Lj5jiR5ULHrEoqdRoK43-57" value="Pin via API non-standard" style="whiteSpace=wrap;html=1;rounded=0;fillColor=#FF9999;" parent="1" vertex="1">
          <mxGeometry x="1360" y="270" width="120" height="45" as="geometry" />
        </mxCell>
        <mxCell id="Lj5jiR5ULHrEoqdRoK43-58" value="CODE BANKING" style="whiteSpace=wrap;html=1;rounded=0;fillColor=#FF9999;" parent="1" vertex="1">
          <mxGeometry x="1330" y="325" width="150" height="35" as="geometry" />
        </mxCell>
        <mxCell id="Lj5jiR5ULHrEoqdRoK43-59" value="HRnFLEX2000" style="whiteSpace=wrap;html=1;rounded=0;fillColor=#FF9999;" parent="1" vertex="1">
          <mxGeometry x="1130" y="372.5" width="100" height="35" as="geometry" />
        </mxCell>
        <mxCell id="Lj5jiR5ULHrEoqdRoK43-60" value="HRnFLEX1000" style="whiteSpace=wrap;html=1;rounded=0;fillColor=#FF9999;" parent="1" vertex="1">
          <mxGeometry x="1240" y="372.5" width="130" height="35" as="geometry" />
        </mxCell>
        <mxCell id="Lj5jiR5ULHrEoqdRoK43-61" value="HRnFLEX Freemium" style="whiteSpace=wrap;html=1;rounded=0;fillColor=#FF9999;" parent="1" vertex="1">
          <mxGeometry x="1380" y="372.5" width="100" height="35" as="geometry" />
        </mxCell>
        <mxCell id="Lj5jiR5ULHrEoqdRoK43-62" value="HRnFLEX" style="whiteSpace=wrap;html=1;rounded=0;fillColor=#FF9999;" parent="1" vertex="1">
          <mxGeometry x="1190" y="417" width="100" height="34" as="geometry" />
        </mxCell>
        <mxCell id="Lj5jiR5ULHrEoqdRoK43-64" value="Customized API" style="whiteSpace=wrap;html=1;rounded=0;fillColor=#FF9999;" parent="1" vertex="1">
          <mxGeometry x="1308.75" y="416" width="100" height="35" as="geometry" />
        </mxCell>
        <mxCell id="Lj5jiR5ULHrEoqdRoK43-65" value="&lt;h1 style=&quot;margin-top: 0px;&quot;&gt;Requirements&lt;/h1&gt;&lt;p&gt;To do:&lt;/p&gt;&lt;p&gt;&lt;font color=&quot;#ff681c&quot;&gt;1. Convert Old &lt;span style=&quot;background-color: rgb(110, 255, 94);&quot;&gt;STIC renewal pipeline&lt;/span&gt; to &lt;span style=&quot;background-color: rgb(110, 255, 94);&quot;&gt;CS Top-ups pipeline&lt;/span&gt; (recent alignment).&lt;/font&gt;&lt;/p&gt;&lt;p&gt;&lt;font color=&quot;#ff681c&quot;&gt;2. Notifications : When CEF soon as created.&lt;/font&gt;&lt;/p&gt;&lt;p&gt;&lt;font color=&quot;#ff681c&quot;&gt;3. &lt;b&gt;After they create a ticket in TOPUP&lt;/b&gt;&lt;/font&gt;&lt;/p&gt;&lt;p&gt;&lt;font style=&quot;font-size: 10px;&quot;&gt;&lt;font color=&quot;#ff681c&quot;&gt;&lt;span style=&quot;white-space: pre;&quot;&gt;&#x9;&lt;/span&gt;☻ Create a deal in CS pipeline&lt;/font&gt;&lt;br&gt;&lt;/font&gt;&lt;/p&gt;&lt;p&gt;&lt;span style=&quot;color: rgb(255, 104, 28);&quot;&gt;4. Separate Renewal pipeline&lt;/span&gt;&lt;br&gt;&lt;/p&gt;&lt;p&gt;&lt;font style=&quot;font-size: 10px;&quot;&gt;&lt;span style=&quot;font-size: 12px;&quot;&gt;&lt;b&gt;5. Changes HubSpot Property&lt;/b&gt;&lt;/span&gt;&lt;br&gt;&lt;/font&gt;&lt;/p&gt;&lt;p&gt;&lt;span style=&quot;white-space: pre;&quot;&gt;&#x9;&lt;/span&gt;☻ &lt;font style=&quot;font-size: 10px;&quot;&gt;PO and CE (only one). dropdown &lt;span style=&quot;white-space: pre;&quot;&gt;&#x9;&lt;/span&gt;property&lt;/font&gt;&lt;/p&gt;&lt;p&gt;&lt;span style=&quot;white-space: pre;&quot;&gt;&#x9;&lt;/span&gt;☻ &lt;font style=&quot;font-size: 10px;&quot;&gt;Payment term = term (?)&lt;/font&gt;&lt;/p&gt;&lt;p&gt;&lt;font style=&quot;font-size: 10px;&quot;&gt;&amp;nbsp; &amp;nbsp; &lt;span style=&quot;white-space: pre;&quot;&gt;&#x9;&lt;/span&gt;&lt;span style=&quot;white-space: pre;&quot;&gt;&#x9;&lt;/span&gt;&amp;nbsp;- add Post Payment when I&#39;m on &lt;span style=&quot;white-space: pre;&quot;&gt;&#x9;&lt;/span&gt;&lt;span style=&quot;white-space: pre;&quot;&gt;&#x9;&lt;/span&gt;it.&lt;/font&gt;&lt;/p&gt;&lt;p&gt;&lt;span style=&quot;font-size: 10px;&quot;&gt;&lt;u&gt;&lt;span style=&quot;white-space: pre;&quot;&gt;&#x9;&lt;/span&gt;☻ Wallet No. = User no.&lt;/u&gt;&lt;/span&gt;&lt;/p&gt;&lt;p&gt;&lt;span style=&quot;font-size: 10px;&quot;&gt;&lt;br&gt;&lt;/span&gt;&lt;/p&gt;&lt;p&gt;&lt;b&gt;6. Changes in Workflow&lt;/b&gt;&lt;/p&gt;&lt;p&gt;&lt;span style=&quot;white-space: pre;&quot;&gt;&#x9;&lt;/span&gt;☻&lt;font style=&quot;font-size: 10px;&quot;&gt; Deal duplication&lt;/font&gt;&lt;/p&gt;&lt;p&gt;&lt;font style=&quot;font-size: 10px;&quot;&gt;&amp;nbsp; &amp;nbsp;&lt;span style=&quot;white-space: pre;&quot;&gt;&#x9;&lt;/span&gt;&lt;span style=&quot;white-space: pre;&quot;&gt;&#x9;&lt;/span&gt; - Don&#39;t auto assign miss Jamie&lt;/font&gt;&lt;/p&gt;&lt;p&gt;&lt;font style=&quot;font-size: 10px;&quot;&gt;&lt;b style=&quot;font-size: 12px;&quot;&gt;6. Changes in Views&lt;/b&gt;&lt;br&gt;&lt;/font&gt;&lt;/p&gt;&lt;p&gt;&lt;span style=&quot;white-space: pre;&quot;&gt;&#x9;&lt;/span&gt;☻&lt;font style=&quot;font-size: 10px;&quot;&gt;&amp;nbsp;FOR STIC CS&lt;/font&gt;&lt;/p&gt;&lt;p&gt;&lt;font style=&quot;font-size: 10px;&quot;&gt;&lt;/font&gt;&lt;/p&gt;&lt;p&gt;&lt;font style=&quot;font-size: 10px;&quot;&gt;&amp;nbsp; &amp;nbsp;&lt;span style=&quot;white-space: pre;&quot;&gt;&#x9;&lt;/span&gt;&lt;span style=&quot;white-space: pre;&quot;&gt;&#x9;&lt;/span&gt;&amp;nbsp;- CEF nalang and general details &lt;span style=&quot;white-space: pre;&quot;&gt;&#x9;&lt;/span&gt;&lt;span style=&quot;white-space: pre;&quot;&gt;&#x9;&lt;/span&gt;sa renewal, including their specific &lt;span style=&quot;white-space: pre;&quot;&gt;&#x9;&lt;/span&gt;&lt;span style=&quot;white-space: pre;&quot;&gt;&#x9;&lt;/span&gt;pipeline properties.&lt;/font&gt;&lt;/p&gt;&lt;p&gt;&lt;font style=&quot;font-size: 10px;&quot;&gt;&lt;b style=&quot;font-size: 12px;&quot;&gt;&lt;br&gt;&lt;/b&gt;&lt;/font&gt;&lt;/p&gt;" style="text;html=1;whiteSpace=wrap;overflow=hidden;rounded=0;" parent="1" vertex="1">
          <mxGeometry x="100" y="-750" width="200" height="650" as="geometry" />
        </mxCell>
        <mxCell id="Lj5jiR5ULHrEoqdRoK43-66" value="&lt;h1 style=&quot;margin-top: 0px;&quot;&gt;CEF&lt;/h1&gt;&lt;div&gt;&lt;br&gt;&lt;/div&gt;" style="text;html=1;whiteSpace=wrap;overflow=hidden;rounded=0;" parent="1" vertex="1">
          <mxGeometry x="550" y="450" width="60" height="45" as="geometry" />
        </mxCell>
        <mxCell id="RFhPPXgw3bp9lLD3XkBa-4" value="&lt;b&gt;For Tech&lt;/b&gt;" style="text;html=1;align=center;verticalAlign=middle;whiteSpace=wrap;rounded=0;fillColor=#FFFFFF;" parent="1" vertex="1">
          <mxGeometry x="420" y="-730" width="130" height="30" as="geometry" />
        </mxCell>
        <mxCell id="RFhPPXgw3bp9lLD3XkBa-5" value="&lt;b&gt;&lt;font color=&quot;#ff681c&quot;&gt;For Sales&lt;/font&gt;&lt;/b&gt;" style="text;html=1;align=center;verticalAlign=middle;whiteSpace=wrap;rounded=0;fillColor=#FFFFFF;" parent="1" vertex="1">
          <mxGeometry x="420" y="-700" width="130" height="30" as="geometry" />
        </mxCell>
        <mxCell id="RFhPPXgw3bp9lLD3XkBa-6" value="From Tickets to Deals&lt;div&gt;&lt;b&gt;Automation&lt;/b&gt;&lt;/div&gt;" style="whiteSpace=wrap;html=1;rounded=0;" parent="1" vertex="1">
          <mxGeometry x="1440" y="10" width="180" height="50" as="geometry" />
        </mxCell>
        <mxCell id="RFhPPXgw3bp9lLD3XkBa-7" value="" style="html=1;verticalLabelPosition=bottom;align=center;labelBackgroundColor=#ffffff;verticalAlign=top;strokeWidth=2;strokeColor=#FF681C;shadow=0;dashed=0;shape=mxgraph.ios7.icons.settings;fillColor=#FF681C;" parent="1" vertex="1">
          <mxGeometry x="1620" y="10" width="30" height="30" as="geometry" />
        </mxCell>
        <mxCell id="RFhPPXgw3bp9lLD3XkBa-8" value="" style="shape=image;verticalLabelPosition=bottom;labelBackgroundColor=default;verticalAlign=top;aspect=fixed;imageAspect=0;image=data:image/png,iVBORw0KGgoAAAANSUhEUgAABkMAAAb2CAYAAAAGqMXMAAAAGXRFWHRTb2Z0d2FyZQBBZG9iZSBJbWFnZVJlYWR5ccllPAAAthpJREFUeNrs3c1x3Ei2NuCsihuB5eW1YEoWDNuCLlnQlAVTtKDJVS1FLWtFtQVkW0C2Bay2gBwLVGPB8FvWCl+mALYkNiX+FYAE8DwRCGh6+kc6pKBMvHVOTgJkrFwWe/G2f+8vz3fwr76N183Xf2Gy2q5VHAAAAABgeCZKQBe+Cjm+Djt+ru8PBSBtS0HJbX39u/5r67v/b7La3voqAgAAAAD0gzCERpXLYh5vs/pKYUcOQceurMOXsGSTLt0lAAAAAAD5EYawE+WymIUq5EhXCj1m9TVGm1B1lvy7vqdOko3vEgAAAACAbghDeLZ6xNU8fAk+7sZd8X13Z5T8GaqOEqO2AAAAAABaIgzhUXXXxzxUwUe6z1RlJ27CVwGJ7hEAAAAAgGYIQ/ibuvPjIAg/2rYJVdfIH6EKR3SOAAAAAADsgDCEz8plkUZd/St8GX9F91LXSApGLier7Y1yAAAAAAC8jDBkxMplkbo/fglVF4gzP/K2CXXXyGS1vVQOAAAAAICnE4aMyFfjr+4CEPopjc9KgYhgBAAAAADgCYQhI1B3gKQRWAKQ4RGMAAAAAAA8QhgyUPUZIL8GI7DGJAUj5/H63RkjAAAAAABfCEMGpFwWs1CFHykEmanIqKUw5Pd4nU9W21vlAAAAAADGTBgyAMZg8YjzUHWLrJUCAAAAABgjYUhP1YehL4IuEJ5uE68P8brULQIAAAAAjIkwpGfqUVjvQxWEwEvcnS3y22S13SgHAAAAADB0wpCeKJfFPFQhyFw12KHLUIUia6UAAAAAAIZKGJK5clksQjUKa181aNA6Xh+EIgAAAADAEAlDMlWHIKkTZKYatGgTqlDkXCkAAAAAgKEQhmRGCEImNkEoAgAAAAAMhDAkE0IQMrUJQhEAAAAAoOeEIR0TgtATN/E6dqYIAAAAANBHwpCOlMtiHqoQZK4a9Mg6OGgdAAAAAOgZYUjLymUxi7fTeB2oBj12HqpQZKMUAAAAAEDuhCEtKZfFXqg6QY5Ug4G4jddv8fo4WW1vlQMAAAAAyJUwpAX1uSCpG2RPNRigTajOE7lUCgAAAAAgR8KQBpXLYj9UIchcNRiBdbwOjc4CAAAAAHIjDGmAkViM3IdgdBYAAAAAkBFhyI6VyyIdjJ66QWaqwYhtQtUlslYKAAAAAKBrwpAdqbtBzuJ1oBrwl/NQnSeiSwQAAAAA6IwwZAfqbpAUhDggHf4uBSGHDlgHAAAAALoiDHkF3SDwLCkMOdQlAgAAAAC0TRjyQrpB4EVSEPLOWSIAAAAAQJuEIc9Ud4OkA9IXqgEv9jFeH3SJAAAAAABtEIY8Q7ks9uPtIl4z1YBXuwnV2KwbpQAAAAAAmjRVgqcpl8VJvF0HQQjsSgoXr+PvrSOlAAAAAACapDPkEfVYrNQNMlcNaIzD1QEAAACAxghDfqBcFvNQBSEOSYfmbUJ1uLqxWQAAAADAThmT9R316J6rIAiBtsxCNTZroRQAAAAAwC7pDLmnHot1Gq+FakBnzier7aEyAAAAAAC7IAz5SrksZqEai7WvGtC5NC7rrXNEAAAAAIDXEobUnA8CWUpByFvniAAAAAAAr+HMkPA5CFkE54NAjtLvSeeIAAAAAACvMvowpFwWZ/F25lsBsnYWf6+eKgMAAAAA8BKjHZNVH5SeQpAD3wbQG+fxOnaOCAAAAADwHKMMQ+ogJI3FclA69I+D1QEAAACAZxndmKxyWaQA5DoIQqCv0u/dq/h7eaYUAAAAAMBTjKozpA5CHJQOw5A6Q1KHyI1SAAAAAAA/MprOkHJZzIMgBIbk87i7OuQEAAAAAPiuUYQh5bJYBEEIDNFdIHKgFAAAAADA9wx+TFYdhJz5UsPgHU5W23NlAAAAAADuG3QYIgiB0RGIAAAAAAB/M9gwRBACoyUQAQAAAAC+McgwRBACoycQAQAAAAD+MrgwRBAC1AQiAAAAAMBngwpDBCHAPQIRAAAAAGA4YYggBPgOgQgAAAAAjNwgwhBBCPAIgQgAAAAAjFjvw5ByWczj7cqXEviB23i9nay2N0oBAAAAAOPT6zCkXBb7oQpC9nwpgUcIRAAAAABgpHobhghCgBcQiAAAAADACPUyDCmXRQpAruM18yUEnikFISkQuVUKAAAAABiHad9+wnUQkjpCZr58wAt87iqrnyUAAAAAwAhMe/hzPgvVy0yAl0rPkFNlAAAAAIBx6FUYUi6LFIQc+LIBO7CIzxSBCAAAAACMQG/ODCmXxSJUXSEAu3Q4WW3PlQEAAAAAhqsXYUi5LOahOicEoAk/TVbbG2UAAAAAgGHKPgwpl8Us3q7j5bBjoCm3oQpENkoBAAAAAMOT9Zkh5bJIAchFEIQAzfr8rKmfOQAAAADAwOR+gHo6I2TflwloQXrWOFAdAAAAAAYo2zCkXBZH8XbgSwS0aFE/ewAAAACAAcnyzBAHpgMdc6A6AAAAAAxIdmFIPbP/U3BOCNCdTagCkVulAAAAAID+y3FMlgPTga7NQnVmEQAAAAAwAFmFIeWyOIm3uS8LkIED54cAAAAAwDBkMyarXBb78XbtSwJkxvkhAAAAANBzWYQh9TkhKQiZ+ZIAmdkE54cAAAAAQK/lMiYrzeaf+XIAGUrPplNlAAAAAID+6rwzpFwWB6E6NB0gZ+8mq+2lMgAAAABA/3QahtTjsT7Fa8+XAshcGpP1xrgsAAAAAOifrsdkpfFYghCgD/bqZxYAAAAA0DOdhSHlsjiKtwNfAqBHDurRfgAAAABAj3QyJst4LKDHjMsCAAAAgJ7pqjPEeCygr4zLAgAAAICeaT0MqUfMGDMD9JlxWQAAAADQI62OyTIeCxiQTbx+Mi4LAAAAAPLXdmfI+yAIAYZhVj/TAAAAAIDMtdYZUi6L/Xi7VnJgYFJ3yI0yAAAAAEC+2uwMceAwMESnSgAAAAAAeWslDCmXxSLe9pUbGKB5/YwDAAAAADLV+Jgsh6YDI5AOUX/jMHUAAAAAyFMbnSEOTQeGbi84TB0AAAAAstVoZ0i5LGah6goBGIPUHbJRBgAAAADIS9OdIQ5NB8bEYeoAAAAAkKHGOkPKZTGPtyslBkbm7WS1XSsDAAAAAOTjfxr8d5ufD4xRevatlQEAAGhL/YHUl7iZrLa3KgjAGDTSGRL/EF4EI7KA8TqMG4pzZQAAAJ6rPn81XXvx2q//8j/r/x3q/2/W0H8+BSM3X/3vP+v7pr5u417nxlcJgD5qKgz51OAfzAC528QNwhtlAAAAHvJV4DGP1/+GKvS4+2t9cBeabOL1n7sfC0oAyNnOwxBdIQCf6Q4BAADuRlilsCN1d8xCFYAM2U19pZBkHYziAiATTYQhukIAdIcAAMDolMsihR7p+rm+76tKtT8KVTDy73TXQQJAF3YahugKAfiG7hAAABiwOvyYhyr8SPc9VXmydajOJEnhyFo5AGjarsMQXSEAX+gOAQCAAanP+jgIwo8mXIYv4YjOEQB2bmdhiK4QgAfpDgEAgB6rz/z4JVQhyExFWrEJVefIH3E/dakcAOzCLsMQXSEADyzidYcAAEC/lMsiBR93AYjuj+6lQOSPdHcYOwAvtZMwRFcIwA/pDgEAgMwJQHpDMALAi+wqDNEVAvB9ukMAACBD9QisfwUBSF+dB6O0AHiiV4ch9cLhSikBfuhtXKCvlQEAALpVH4K+CFUIMlORQdiEqmPkt7jv2igHAA/ZRRiSgpC5UgL80Douyt8qAwAAdKMe8Z0CkLlqDHvvFa/fjSoG4L5XhSFxIbEfb9fKCPAkP8UF+Y0yAABAO77qAvk1GIM1Nuk8kfOgWwSA2vSV//yvSgjgmQkAADlJI73jdRZ/mM44fR8EIWOUvuZH6Xsgfi9c1GPeARixF3eGxD9E0h8q/1VCgGf5v8lqe6sMAACwe0Zh8Yh1MEILYLRe0xlypHwAnp0AANC1FILEK3WBpG6QuYrwHel74yx9r9TBGQAj8prOkLTImCkhwLNsJqvtG2UAAIDXq19opzFYM9XgJfuzeH3QKQIwDi8KQ+Ji4yDeLpQP4EXexcX2pTIAAMDLCEHYsU0QigAM3kvHZP1L6QBezDMUAABe4N44rJmKsCPpe8n4LICBe3ZnSPxDIf0B8UnpAF7lzWS13SgDAAA8rp5QcRoEILQj7dWOdfQDDMtLOkMWygbwap6lAADwiHJZzON1FapR3TMVoSXpe+0ife+l70HlABiGl3SGODgd4PUcpA4AAN9RT6VIZ4IsVIMMnIeqU+RWKQD661mdIXVb6kzZAF5tVj9TAQCAr8R18km8XQdBCPlI34uf6u9NAHrquWOyflEygJ3xTAUAgFo9EitNo0gdIXsqQmbS9+T7+pD1uXIA9M+Tx2TFB3166H+yIAHYmdRi/UarNQAAY1aPxEqHo+ucpk/Og9FZAL3ynM6QtCgRhADszp4NHwAAY1Yui6NQjcSyLqZvFqEanbVQCoB+eE4YYpwLwO55tgIAMDqpGyReV6HqCPHBS/oqfe+epe/lusMJgIw9aUxWPSLrv8oF0Ij/01oNAMBY1N0gpyrBwKQ93Ye4t/uoFAB5empniHZVgOZ4xgIAMHj3ukFgaNIHiU/rLhHdTgAZemoYYowLQHM8YwEAGLSvzgaZqwYDl77H01kiPvQGkJlHx2QZkQXQCqOyAAAYnPqdwlnQDc04ncfr2F4PIA9P6QyxYAFonmctAACDUi6Lebx9stZlxBbxSmOz9pUCoHtPCUOMbwFonmctAACDUS6Lk3hL54M4O4GxS0FICkQWSgHQraeMyfqvxQtA424nq+3/KQMAAH1Wj8W6CM4GgYecB2OzADozfWQRk1pZBSEAzdtzwB4AAH1WjwJKY7HmqgEPWgRjswA689iYrJ+VCKA1nrkAAPRSPQLoOvhAJTzmbmyWD8MBtOyxMMSDGaA9nrkAAPROuSzO4u1MJeDJPo+Tq8/WAaAlkx8sZmaham8FoD1vJqvtRhkAAMhdfT5IOiTdyB94ufPgHBGAVvyoM2SuPACt0x0CAED26jMP0lgsQQi8ziJUY7OMmANo2I/CkF+UB6B1zg0BACBr5bKYh6ojZKYasBOfw0UHqwM0S2cIQF48ewEAyFZ9UHoKQnyKHXZrFqoOEYEIQEOm31nc7FvYAHRiz+IXAIAc1Yc9OygdGtwPhqpDZKEUALv3vc6QudIAdMYzGACArJTLIoUg71UCWnEmEAHYve+FIWbWA3THMxgAgGzUQchCJaBVZ3U3FgA78j/f+etzpQHojGcwAACdK5dFGtmTzgcxxhW68T7+PvzHZLU9VAqA15s+sNiZBeeFAHTJuSEAAHRKEALZWNTdWQC80kNjsubKAtA5m04AADohCIHsCEQAduChMOSfygLQOeeGAADQOkEIZEsgAvBKD4UhFjwA3fMsBgCgVYIQyJ5ABOAVjMkCyJMNKAAArRGEQG8IRABeaHpv8TNXEoBsNqSeyQAAtLHuFIRAvwhEAF7gfmfITEkAsmEzCgBAGwQh0D8pEDlVBoCnux+GODwdIB+eyQAANKr+dLkgBPrpKP4eXigDwNPcD0MsgADyMVMCAACaUgchC5WAXjsTiAA8zf0wZK4kANnwTAYAoBH1eJ2FSsAgnDlzEuBx068WQjPlAMhuk+rZDADArteYi3g7UgkYlIv4e9vEF4Af+LozZKYcANnxbAYAYGfKZXEQb2cqAYOzF6+r+Ht8TykAHvZ1GDJXDoDseDYDALAT9afGBSEwXAIRgB/4Ogz5X+UAyM4/lAAAgNeqX45eheplKTBcKfQ8VQaAv5vee1gCkJeZEgAA8BqCEBidRfx9f6IMAN9yZghA3gTVAAC81ql1JYzO+/qMIABqwhCAvPn0HgAAL1Yui6N4W6gEjNJZfVYQAKEOQzwYAbLewM5VAQCAF64jnR0A45U+XHfmQHWAyvSrhyMAAAAwAPXLzwuVgNFLH4A+UwaAL2GIzhCAfM2VAACAZ3JgOnDnoB6ZBzBqOkMAAABgQMpl4cB04L5TY/KBsbsLQ/6hFADZ+qcSAADwFOWyOIg3nwAHHnLh/BBgzO7CkJlSAGTLYhUAgEfVLzmdDQB8z8wzAhizqRIAZE8YAgDAU1xYOwKPSOeHLJQBGKO7MGSuFADZMtcVAIAfqg9HtrcHniKdHzJTBmBsdIYAAABAj9WHIp+qBPBERuoBozR1cBJALza4M1UAAOA7vNQEnmted5QBjEbqDDF+BSB/MyUAAOC+clmc2NcDL/TeB++AMTEmCwAAAHqoHo/1XiWAFzIuCxgVYQgAAAD0k5eYwGsZlwWMRgpDZsoAkD2jDwAA+IvxWMAOGZcFjIIwBKAf9pQAAICkfmlpPBawy/3mqTIAQ2dMFgAAAPSL8VjArh2Uy+JAGYAhE4YAAABAT5TLYhFvc5UAGnAanzGmEgCDJQwBAACAHqhfUhplAzRlFi+HqQODJQwBAACAfkjnhPjUNtDoc8Zh6sBQCUMA+uFnJQAAGK/65aRPbANt0IEGDFIKQ7xgAwAAgLw5NB1oSzpMfa4MwNDoDAEAAICM1S8l5yoBtEh3CDA4whAAAADIm64QoG375bJYKAMwJMIQAAAAyFT9MnKmEkAH3isBMCTCEAAAAMhQuSz2glE1QHdm8Tl0ogzAUAhDAAAAIE9H8dpTBqBDv9bBLEDvCUMAAAAgM/XLx19VAuhYehYdKQMwBMIQAAAAyI+uECAXukOAQUhhyEYZALLnWQ0AMBK6QoDM6A4BBiGFIf9RBoDseVYDAIyHrhAgN7pDgN4zJgsAAAAyoSsEyJTuEKD3hCEAAACQD10hQK4EtUCvCUMAAAAgA7pCgMztxefUQhmAvhKGAPTDjRIAAAzeQdAVAuTtvRIAfZXCkFtlAMieZzUAwPB5yQjkbqY7BOirFIb4tDEAAAB0qH65OFMJoAf+pQRAHxmTBdAPgmsAgGHzchHoi3m5LPaVAegbYQhAD0xWW2OyAAAGqn6pOFcJoEd+VQKgb1IYslEGgKwJQgAAhs1LRaBvFuWy2FMGoE+mk9V2owwAWTMiCwBgoOqXiQuVAHrIswvoFWOyAPKnMwQAYLgWSgD0lK42oFfuwpCNUgBk699KAAAwWF4mAn01K5fFXBmAvhCGAORPZwgAwADVLxFnKgH02L+UAOgLY7IA8ufMEACAYfISEei7AwepA31xF4b8qRQA2dooAQDAsNQvDw9UAug5zzKgN3SGAGRustpuVAEAYHDSy0OfpgaGQJcb0At3YchaKQCy5PkMADBMvygBMBDzclnMlAHInc4QgLxtlAAAYFjql4bGygBD4pkGZO9zGDJZbddKAZCl/ygBAMDgeGkIDI1RWUD2dIYA5G2tBAAAg+OlITA0+0ZlAbn7OgxZKwdAdjZKAAAwHPXLwn2VAAZI1xuQta/DkFvlAMjK7WS13SgDAMCgeFkIDJWuNyBrX4ch/1YOgKzcKAEAwOB4WQgMlVFZQNa+DkO8dAPIy59KAAAwHOWy2AtGZAHDNlcCIFdfhyEb5QDIipAaAGBYjMgChu4XJQBy9VcYMlltvXQDyIvnMgDAsHhJCAyd0BfI1vTe//biDSAPDk8HABieuRIAQ1cuC4EIkCVhCECe1koAADAc5bKYx9ueSgAj8LMSADm6H4b8R0kAsvBvJQAAGBQjsoCxmCsBkKP7YchaSQCy4HkMADAscyUARmK/XBYzZQByY0wWQIYmq+1aFQAAhqFcFmk81r5KACMyVwIgN9+EIZPV9jbeNsoC0CnBNADAsMyVABgZ54YA2Zk+8NfWygLQKc9hAIBhcV4IMDZzJQBy81AY4tBegG79qQQAAINiRBYwNrN6RCBANh4KQ4xnAejWWgkAAIbBeSHAiM2VAMjJ38IQh/YCdOqmPr8JAIBhmCsBMFLODQGyMv3OX18rDUAnPH8BAIZFVwjg+QeQge+FIebVA3TD8xcAYFh8MhoYq7kSADnRGQKQF89fAIBhmSsBMFblstAdAmTjwTDEuSEAnXBeCADAgHgJCGBUFpCP6Q/+v7XyALTKcxcAYFi8BATG7p9KAOTiR2GIufUA7fLcBQAYFi8BgbETCgPZ+FEYcqk8AK36pVwWe8oAADAYXgICYzdXAiAX3w1DJqvtTbyZXQ/QnkW8rsyWBgAYDOs6YPTiHnemCkAOpo/8/7pDANrfMKdAZKEUAAD9Vb/80/ULEMJMCYAcPBaGmF8P0L60aT6LG+gzY7MAAHprpgQAn82VAMiBzhCAfC2CsVkAAH01VwKAz/5XCYAc/DAMmay26cyQtTIBdMbYLACAfvLyD+DLvhagc9Mn/D1/KBNAp+7GZp0qBQBAb3j5B1CZKQGQg6eEIUZlAeThqFwW1/VhnAAA5M2aDcDzEMjIo2HIZLXdxNuNUgFkIX3CMAUiB0oBAJC1mRIAVJyFCeRg+sS/73elAshGGpt1YWwWAECevPQDeHAfC9Cpp4YhRmUB5MfYLACAPHnpB/At+1agc08KQ4zKAsiWsVkAAHmu0QD4YqYEQNemz/h7jcoCyJOxWQAA+a3PAPjif5UA6NpzwhCjsgDylsZmXcXL5hsAoFte+gF8S8cc0LknhyH1qKy1kgFkbR6vT+WymCsFAEBnvPQDAMjM9Jl/v1FZAPlLnSGpQ+REKQAAAMjATAmArj03DEmjsm6VDaAX3hubBQDQCZ0hAN+aKQHQtWeFIZPVNgUhzg4B6I95MDYLAKBtPowCAJCZ6Qv+GaOyAPq3GTc2CwAAAIDRmrzkHyqXxaegvQ2gj1J332Hd6QcAwI7VI0r/qxIAf/M27kXXygB0ZfrCf+43pQPopYN4XcdNujnWAADNsM4CAMjQS8OQ8+AgdYC+moUqEDlSCgAAAADG4EVhiIPUAQbhtFwWF/UoBwAAAAAYrOkr/lmjsgD6z9gsAAAAAAbvxWHIZLW9ibe1EgL03iwYmwUAAECzTCUAOjV95T//uxICDIaxWQAArzdXAoAHmUgAdOpVYchktT2Pt40yAgxGGpt1ZWwWAAAAAEMy3cG/44MyAgxKCkJSILJQCgAAAACGYBdhyGW8bpUSYFDSqKyzclmcGZsFAAAAQN+9OgyZrLYpCPlNKQEGaRGMzQIAAACg56Y7+vd8DLpDAIbK2CwAAAAAem0nYYjuEIDBMzYLAAAAgN6a7vDfpTsEYPgWoeoSmSkFAAAAAH2xszBEdwjAaKSxWdflsjhQCgAAAAD6YLrjf5/uEIBxSKOyLsplcaoUAAAAAORup2GI7hCA0Tkql8W1sVkAAH/ZKAEAQH6mDfw7dYcAjIuxWQAAX2yUAMDzEcjPzsMQ3SEAo2RsFgAAAD+yUQKgS9OG/r26QwDG6W5s1p5SAAAAAJCLRsKQujvkWHkBRimNzfpULou5UgAAAACQg6Y6Q1Igch60vwGMVeoMuSqXxYlSAAAAANC1acP//kMlBhi19+WyuDI2CwAYi8lqu1YFAID8NBqG1ItAC0GAcZsHY7MAAABGTVgMdG3awn9DdwgAxmYBAAAA0JnGw5DJaruJt49KDUAwNgsAGIdbJQAAyMu0pf/OB4tBAGrzUI3N2lcKAGCgbpQA4BsbJQC61koYMlltUxByrNwA1FJnyHW5LI6UAgAAYPA2SgB0ra3OkBSInAeHqQPwrdNyWVwYmwUADMxGCQAA8jJt+b/nMHUA7jsIVZeIsVkAwFD8RwkAvmF8INC5VsOQ+jD1D8oOwD2zYGwWAADAUP0/JQC61nZnSApEToKWYQAeZmwWADAEayUA+MZGCYCuTTv67xqXBcD3GJsFAAAwLBslALrWSRgyWW3X8fZR+QH4jlm8rsplsVAKAKBv6j0vAF9slADo2rTD//YHD0IAfiCNyjorl8WZsVkAAAD9VZ8jDNCpzsKQ+BC8DcZlAfC4Rai6RIzNAgD6ZK0EAJ/dKAGQgy47Q+5ahz/4MgDwiBSEGJsFAPTJrRIAeB4C+Zh2/ROYrLYnQUIMwOOMzQIA+uTfSgDw2Z9KAORgmsnPI43LkhID8BSLYGwWAJC/jRIAfOadH5CFLMKQyWqbOkOMywLgqYzNAgByt1ECgM9MhAGykEtnSApEPsbbpS8JAE90NzbrVCkAgNzUZ2QCIAwBMjHN7OeTxmVtfFkAeIajcllcx2umFABAZuxvgdE/ByerrTFZQBayCkPqh+M7XxYAnimNzUqByIFSAAAZ2SgB4DkIkIfcOkPuzg859qUB4JnS2KwLY7MAgIz8qQSA5yBAHqY5/qScHwLAKxibBQDkwpx8wHMQIBPTjH9uhx6YALyQsVkAQA7saQHPQYBMTHL+yZXLIr3MugrV6BMAeIkPk9X2RBkAgI72taUqACOVDk9/owxALnLuDLk7P+TQlwmAV3hfLoureAnWAYAurJUAGCldIUBWprn/BCerbTo75IMvFQCvMI/Xp3JZzJUCAGiZw4MBzz+ADEz78JOsx5uc+3IB8AqpMyR1iJwoBQDQIp+MBjz/ADIw6ctPtB5vks4P2fdlA+CV1vF6N1ltb5UCAGhhL/tflQDGJu63JqoA5GTal59o/cLqbbw2vmwAvNI8GJsFALS3l7WPBcZmrQRAbqZ9+snWi8h38fJJXgBe625s1pFSAAANWysBMDLOCwGyM+3bT3iy2qZ5g2996QDYkdNyWVzUIywAAJrgpSAwNmslAHIz7eNPug5EDn35ANiRg3hdl8vCuVQAQBPWSgCMyO1ktfXcA7Iz7etPPD5Uz4NABIDdmYUqEDE2CwDY9f51E5wbAozHWgmAHE37/JOvA5GPvowA7JCxWQBAE9ZKAIzEH0oA5Gja91/AZLU9jrdzX0oAdsjYLABg17wcBMZirQRAjqZD+EVMVts0LuvclxOAHZoFY7MAgN1ZKwEwAjf1aECA7EyH8gsRiADQkDQ268zYLADglXvW2yAQAYbPcw7I1nRIvxiBCAANWcTrytgsAOCVjMoChu53JQByNR3aL0ggAkBDUhCSApGFUgAAL7RWAmDANpPV9kYZgFxNh/iLEogA0JA0KuvM2CwA4IV71fSScKMSwEBdKgGQs+lQf2ECEQAatAjGZgEAL+NlITBURmQBWZsO+RcnEAGgQcZmAQAv4WUhMERGZAHZmw79FygQAaBBf43NUgoA4Il7VKOygCHS9QZkbzqGX6RABICGLcplcR2vmVIAAE/gpSEwNLregOxNx/ILrQORQ19yABqSxmalQORAKQCAR3hpCAyJEVlAL0zH9IuND+bzIBABoDlpbNZFuSxOlQIA+MHe1KgsYEgEvEAvTMf2C64DkbfxuvXlB6AhR8ZmAQCPMCoLGIpzJQD6YDrGX/RktV0HgQgAzTI2CwD4EZ+kBobgcrLabpQB6IPpWH/hdVvym3iZaQhAU4zNAgB+tCe1HwX67g8lAPpiOuZffFx8ps6Q1CGiPRmAJt2NzdpTCgDgK7pDgD67rcfRA/TCdOwFSIFIvN7FH3707QBAg9LYrE/lspgrBQBQO1cCwDMMoB1TJahMVtvjeDsMzhEBoDmpM+SqXBYnSgEA1NMKzlUC6KnflADoE2HItwvRtAhNY7M2qgFAg96Xy+LK2CwAIBiVBfSTg9OB3hGG3FMfYvdTvNaqAUCD5sHYLACwB11t095zoxJAz+gKAXpHGPLwYjSdI5I6RD6oBgANMjYLAAj2nkDPbOogF6BXhCE/EB/sJ6Eam+UcEQCaZGwWAIzbpX0n0CMCXKCXhCGPqJPuN8HYLACaNY/Xdbks9pUCAEa373SQOtAXm/rMXYDeEYY8cWFqbBYALZiFKhA5UgoAGB3z94E++F0JgL6aKMHz1J/YvQjVCysAaEoal3FYf1IUABjHfvMs3hYqAWQq7U3e2KMAfaUz5JniA/8m3n6K10fVAKBBB8HYLAAYG5+4BnL2myAE6DOdIa9QLov0oip9cseBtwA06ThuOoTwADCOfeZVqM4SA8iJrhCg93SGvEL8AyCNMEmHq1+qBgANOi2XxUW8hO8AMHzOqgRypCsE6D2dITuiSwSAFmzi9a4e2QgADHd/qTsEyImuEGAQdIbsyFddIsaYANCUWbyuymWxUAoAGDTdIUBOdIUAg6AzpAHlspjH22m8HHoLQFPOQ3WWiE0JAAxzX6k7BMiBrhBgMHSGNCD+AbGO10+h+jSPPywYy+LI2TnQrkWoukQE7wAwTLpDgCyeRYIQYCiEIQ2Kf1icxFsKRbwkZsjSaLj0KZF38X4YBIDQphSEGJsFAMPcT67jba0SQIc28VlkHDwwnPWVErTD6CwGKG3Mju8f5Fx/Sv3M9zq07jwYmwUAQ9xHXqkE0JHDuL84VwZgKIQh7S9mF6EKRfZUg57a1Aui9Q++z/fq7/OFckGrburfnzdKAQCD2UM6OwToQhoB/1YZgCERhnSzmE0vio/i9WsQitAf6dPmx8/5VEj8Xk/f56dKB63/Xk2BiBGNADCM/eMs3j6pBNCytz/6ECRAHwlDul/Uvg8+PU/e0ovV3+L18SXjd+qxWRfxmikltCr9nj1WBgAYxN7xzL4RaNF53EscKgMwNMKQPBa2syAUIT+vCkHufY+nDqi0gTtQVmhVGpf1Lv4e3igFAPR6z5jW06k7xGQBoI13AW+cRQgMkTAkrwXuLAhFyMPHeH3Y9eLH2CzobDNjbBYA9H+/aC0NtCGNx/6oDMAQCUPyXOTOglCE9u2sE+SR729js6AbxmYBQP/3ip+so4EG3cQ9w0/KAAyVMCTvhW5a5ApFaForIci9721js6CjzU0wNgsA+rxHnMfblUoADXFoOjBowpB+LHhn8fZrqEIRM2LZlU2oQpDzrmaBxu/tk1AFfkB70u/3dzY5ANDb/WHqsvahImDXdJIDgycM6deiNwUhaU7sv4LWaF4ufTL8t7jIOc/k+3oeqrFZgj5oVzoX6EQZAKCX+0KHqQO7tInXTw5NB4ZOGNLfBfAiVKHIXDV4ovN4/Z7jp8HrDd2F72doXXoevLPpAYDe7Qcdpg7skvFYwCgIQ/q/CJ6FasxQapP2ySDu28Tr91CNwtr04Pv5JBibBW0zNgsA+rkXTGeHzFUCeCXjsYDREIYMZyGcgpAUiKSzRfZVZPQuQ9UFctnD7+W0oTM2C9pnbBYA9GvdPIu3a+tm4BU2wXgsYESEIcNdFKdQJIUjMxUZ1SImHYh+2YcukEe+h43Ngm6sg7FZANCndbNxWcBrGI8FjIowZPiL4xSI/BKM0Rqq9MLyPFRdIDcD/P49CcZmQRfPFWOzAKA/a2bjsoCXMB4LGB1hyLgWyYKRYUgvKtP4qz/6OAbrhd+3Z75noXXH8RnzURkAIPv18iwYlwU8T/ow5Vsd4cDYCEPGu2AWjPTLJlTja0YRgHxng5fGZjkPB9qVnjeHNkkAkP162bgs4KnS2v7tEKdLADxGGEJaOKcXzP8KVWu1l835SAuTdRjoCKwXfq+mDd6RSkCrNqEam+U5BAB5r5XTh4cOVAJ4hA5wYLSEIdxfQM9CFYr8Ut91jbQnfTpjHa8/0r3vh6A3+D1qbBbYNAEAf18np/VxGpc1Uw3gOy7jmv6dMgBjJQzhsQV16hSZx+vnIBzZtbvw489QhR8+df3078u0wTM2CzrYPAVjswAg53Vy2rNdqQTwAOeEAKMnDOG5i+v08jldP9d3L6OfblMvPoQfu/t+NDYLunmWGZsFAPmukU/i7b1KAF9xTghAEIbw+oV26hS56x75Z6hasgUk1ULjLvhI9xtjrxr7HlyE6rBIXUvQrtQhcq4MAJDlGvmq3qMBWLsD1IQhNLX4TgvvWX39/NWPh+Yu9NjE6z+hGnt1o+209e+3FMClc0QEcdCutKE69swDgOzWx84PAe58jOv1Y2UAEIbQ/qI8vay+6yZJ93/e+985SmFHetG3CVXgsakvoUd+G77UIbJQDWj9GXmo5R4Astx7XQUd1DBmaUT3W2UAqAhDyG3BfheMhPAlJLnzj/DwJ5vu/30PuQs07tuEKuD4a6FQ32+92Ovt99AiGJsFbUvP12Ot9wCQ5dr4TCVglDbx+smHOAG+EIYAQ9z0GZsF3TgPxmYBQG5r4/RBoSOVgFFxYDrAA4QhwFA3fcZmQTeMzQKA/NbGF/F2oBIwGikIWSsDwLemSgAMUfpkerwO4w/T5VPq0J7P88nrsRwAQB7SmtgHFWAkv98FIQAP0xkCDJ6xWdCZ8zqUBAC6XxPP4u06OFsPhuxjXH8fKwPAw4QhwJg2gOYlQ/vSp1DfxU3ZRikAoPP18OcOziAQgSHyQSSARwhDgLFtAOfxdmEDCK1Ko+pSu/6lUgBAFuvhK5WAQRGEADyBM0OAUalnp76J11o1oDUpfLyou7MAgO7Xw16awnCkTmyjsQCesg5SAmCsymWRRmZ5OQvtb9aMzQKA7tfCi1Cdqwf0e239Nq6tb5UC4HE6Q4DRigvGj/H2U72ABNqRZpVfl8viQCkAoNO18Hm8fVAJ6C1BCMAzCUOAsW8CPy8g4/VRNaA1xmYBQB5r4ZN4O1cJ6B1BCMBL1j5KAFCpP6meRgU4XB3asw7V2CwbOQDobh2c1sALlYBeEIQAvJAwBODbjeAsVIHIXDWgNWkj964+0BUA6GYdLBCB/AlCAF5BGALw8GbwJN7eqwS06kM9rgMA6GYNLBCBfAlCAF5JGALw/c1gOuj5Il4z1YDWrIOxWQDQ5RpYIAL5EYQA7IAD1AG+oz5c/ad4XaoGtGYer0/lspgrBQB0sgY+jLdjlYBsCEIAdrXOUQKAx5XLYhFvp8Hh6tAmY7MAoNv175lKQKfO64ASgB0QhgA8fUM4C9XYrH3VgNasg7FZANDV+ncRBCLQFUEIwI4JQwCevylMHSJHKgGt2YQqELlRCgBofe07D9UHgnRIQ3uO49r3ozIA7JYwBMCmEGwKAYAfrX1TZ/SVtS+04jCuec+VAWD3hCEAL98Ups1gGhtwoBrQmst6g2hsFgC0v/ZNgYiRsdCMtL59qxsaoDnCEIDXbwzTyKz3wSfloC2bYGwWAHSx7vVhIGhGWtceWt8CNEsYArCbjeF+vTH0STloj7FZANDN2tcZerA7Op8BWiIMAdjdpjB9Uu69jSHYPALACNa+i3hLoYjuaHi5D3Ede6IMAO0QhgDsfmOYxgac2RhCa4wVAIBu1r2pK/oiXjPVgGe5rdevl0oB0B5hCEAzG8O9emM4Vw1obUOZxmadKwUAtL7udY4IPF36AE86/26jFADtEoYANLs5PAnV6CygHeehCkWMzQKAdte9aVTsqUqAtSpAroQhAM1vDI0PgHYZmwUA1r2QE2OxADIwVQKAZtUvZH8K1aeAgOalFzFX9cGuAED7614vfOGLdfp9IQgByGCtogQA7XG4OrTuPBhFAABdrHsXoRqbZd3LmH2I69ATZQDIgzAEoP2N4SxU4wP2VQNa4ZBKAOhu3Zs+CDRXDUa4/jS2FSAzwhCA7jaHJ8Hh6tAWc5oBoLt171G97tUlwhjoBgHIlDAEoNuN4TxUn5abqQa04mPcnB4rAwC0vu6dBV0iDJtuEIDMCUMAut8Y7tUbwwPVgNY2qsZmAUA3a19dIgyRbhCAHhCGANgYwhgZmwUA3a17fRiIoVjXa8qNUgDkTxgCkNfGcL/eGDpcHdphbBYAdLf2nQcjY+mnTbyOfbAGoF+EIQB5bgxP4+1IJaAVxmYBQLdr35N4+zXokKYfPoTqAzW3SgHQL8IQgHw3hfN4u7AphFakzWwKRNZKAQCdrH3Tmjd9IGihGmQqdYEc+wANQH8JQwDy3xSmQGSuGtAKh18CQLfr3zQu9tT6l4ys6zXiWikA+k0YAtCPTeFRvSkE2tnwvjP6AAA6Xf/O4+19EIrQnU1wLgjAoAhDAPqzIXS4OrTH2CwAyGMNvAhVKDJTDVqyCVUnyLlSAAyLMASgX5tBs5ShXcZmAUAe6+C0/hWK0KRNEIIADJowBKCfm8GDUHWJOFwdmrcOxmYBQC7r4EUQirBbmyAEARgFYQhAfzeCaQOYApG5akDjUhDyNm6Sb5QCALJYC6cPB/1qLcwrrOP1uxAEYDyEIQD93wiehOrTcUDz0iGaH5UBALJZC89DFYocqAZPdB6qEGStFADjIgwBGMYmMB2qfhGMC4A2XMbr0NgsAMhqPZzWwSkUWQSjZPm7tG47j9dvcQ23UQ6AcRKGAAxnA5g2fWlslk/FQfPSJvqdsVkAkN2aeB5vVyrBPW91ggAwVQKAYUifUo/Xu/jDw1B98glozixe1+WyOFIKAAAAyJ8wBGBg6gMAf4qXT6xD807LZXFRd2YBAAAAmRKGAAxQmoMbrxSIOOgZmpdG013XZ/cAAAAAGRKGAAzYZLU9jre3wdgsaNosVIHIQikAAAAgP8IQgIGrDwp8E69L1YDGnZXL4szYLAAAAMiLMARgBL46XD11iugSgWYt4nVlbBYAAADkQxgCMCKT1TadIZLGZjlcHZqVgpArY7MAAAAgD8IQgJGZrLYpCEmBiMPVoVlpVJaxWQAAAJABYQjACNVjs9LIrDQ6y9gsaNYiGJsFAAAAnRKGAIzYZLVNh6qnw9XXqgGNMjYLAAAAOiQMARi5ukskjc36oBrQqLuxWadKAQAAAO0ShgDw2WS1PYm3n+K1UQ1o1FG5LK7jNVMKAAAAaIcwBIC/1Ierp0DkXDWgUWlsVgpEDpQCAAAAmicMAeAb9disw+BwdWhaGpt1YWwWAAAANE8YAsCD6sPVU5fIjWpAo4zNAgAAgIYJQwD4rslqu4lXCkQcrg7NMjYLAAAAGiQMAeBR9eHqb4PD1aFJxmYBAABAQ4QhADzJZLVdh2ps1qVqQKPS2KyreO0pBQAAAOyGMASAJ6sPV08Hqx8Hh6tDk+bx+lQui7lSAAAAwOsJQwB4tslq+zFUY7Mcrg7NSZ0hqUPkRCkAAADgdYQhALzIZLW9qQ9X/6ga0Kj3xmYBAADA6whDAHiVyWqbRmalLhFjs6A582BsFgAAALyYMASAV6sPV38Tr7VqQGOMzQIAAIAXEoYAsBP14eqpQ+RYNaBRaWzWhbFZAAAA8HTCEAB2qj5cPZ0l4nB1aM5BvK7LZbGvFAAAAPA4YQgAO5cOVw/VOSLnqgGNmYUqEDlSCgAAAPgxYQgAjajHZh3GH74LDleHJp0amwUAAAA/JgwBoFGT1fYyVGOz1qoBjTE2CwAAAH5AGAJA4yar7aY+XP2DakBjZsHYLAAAAHiQMASA1kxW25NQdYlsVAMak8ZmnRmbBQAAAF8IQwBoVX24egpELlUDGrOI15WxWQAAAFARhgDQuvpw9XSwejpg3eHq0IwUhKRAZKEUAAAAjJ0wBIDOTFbb81B1idyoBjQijco6MzYLAACAsROGANCp+nD1FIh8VA1ozCIYmwUAAMCICUMAyMJktT2Ot7fB2CxoirFZAAAAjJYwBIBsTFbbdby9CQ5Xh6YYmwUAAMAoCUMAyMpXh6sfqwY0ZhGqLpGZUgAAADAGwhAAsjRZbdMZIg5Xh+aksVnX5bI4UAoAAACGThgCQLYmq20KQtI5Ig5Xh2akUVkX5bI4VQoAAACGTBgCQNbqsVlpZFYaneVwdWjGUbksro3NAgAAYKiEIQD0wmS1TYeqp8PV16oBjTA2CwAAgMEShgDQG3WXSBqb9UE1oBHGZgEAADBIwhAAemey2p6E6nD1jWpAI+7GZu0pBQAAAEMgDAGgl+rD1VMgcq4a0Ig0NutTuSzmSgEAAEDfCUMA6K16bNZh/GG6HK4Ou5c6Q67KZXGiFAAAAPSZMASA3pustueh6hK5UQ1oxPtyWVwZmwUAAEBfCUMAGITJaruJVwpEHK4OzZgHY7MAAADoKWEIAINSH67+NjhcHZpgbBYAAAC9JAwBYHAmq+06VGOzLlUDGmFsFgAAAL0iDAFgkOrD1d/FHx4Hh6tDE+ahGpu1rxQAAADkThgCwKBNVtuPoRqb5XB12L3UGXJdLosjpQAAACBnwhAABm+y2t7Uh6t/VA1oxGm5LC6MzQIAACBXwhAARmOy2qaRWWl0lrFZsHsHoeoSMTYLAACA7AhDABiVyWqbDlV/E6+1asDOzYKxWQAAAGRIGALA6NSHq6dzRI5VAxphbBYAAABZEYYAMFr14erpLBGHq8PuGZsFAABANoQhAIxaOlw93lKXyLlqwM7N4nVVLouFUgAAANAlYQgAo1ePzToMDleHJqRRWWflsjgzNgsAAICuCEMAoFYfrp7GZq1VA3ZuEaouEWOzAAAAaJ0wBAC+MlltN/Xh6h9UA3YuBSHGZgEAANA6YQgAPGCy2p6E6iyRjWrAThmbBQAAQOuEIQDwHZPVdh2qsVmXqgE7twjGZgEAANASYQgA/EB9uHo6WD0dsO5wddgtY7MAAABohTAEAJ5gstqeh6pL5EY1YKfuxmadKgUAAABNEYYAwBPVh6unQOSjasDOHZXL4jpeM6UAAABg14QhAPBMk9X2OFSHqxubBbuVxmalQORAKQAAANglYQgAvEB9uPqb4HB12LU0NuvC2CwAAAB2SRgCAC/01eHqx6oBO2dsFgAAADsjDAGAV5qstukMEYerw+4ZmwUAAMBOCEMAYAcmq20KQtI5Ig5Xh926G5t1ohQAAAC8lDAEAHakHpuVRmal0VkOV4fdel8ui6t47SkFAAAAzyUMAYAdm6y26VD1dLj6WjVgp+bx+lQui7lSAAAA8BzCEABoQN0lksZmfVAN2KnUGXJlbBYAAADPIQwBgAZNVtuTUB2u/v/Zu5vkuM1sTcAfKjoCU90VdGoFl1pBJVdgagVOrsDkCENRQ4xIr4DpFYi1AuZdgdgrcPYKWlOM0PiEj7ZsU1T+IDPx8zwRCKjqXsvSUQlI5Itzzlo1oFPGZgEAALAxYQgAHFharh4DkaVqQKfmwdgsAAAANiAMAYAjSGOzLpsfxsNydejO89isK6UAAADge4QhAHBEWVktQ9sl8qQa0Knbusg/GZsFAADAS4QhAHBkWVmtmyMGIparQ7cumuNzXeRnSgEAAMC3hCEAcCJpufp5sFwdujQLbSBibBYAAAB/EIYAwAllZbUK7disB9WAThmbBQAAwB+EIQBwYmm5+vvmh9fBcnXokrFZAAAAfCUMAYCeyMrqLrRjsyxXh+7MgrFZAAAAkycMAYAeycrqKS1Xv1MN6FQcm3VvbBYAAMA0CUMAoIeysoojs+LoLGOzoDuL5ng0NgsAAGB6hCEA0FNZWcWl6m+bY6Ua0JkYhMRAZKEUAAAA0yEMAYAeS8vV4x6Ra9WAzsRRWffGZgEAAEyHMAQABiAtV4+7RCxXh+4sgrFZAAAAkyAMAYCBiMvVm1PsElmqBnTG2CwAAIAJEIYAwICksVmXwXJ16NIfY7OUAgAAYJyEIQAwQGm5ehybtVIN6MyiLvLPzTFTCgAAgHERhgDAQGVltU7L1T+qBnQmjs2KgciFUgAAAIyHMAQABi4rq5vQ7hJZqwZ0Io7N+lQX+a1SAAAAjIMwBABGICurVWjHZj2oBnTmytgsAACAcRCGAMBIpOXqcbF6XLBuuTp0w9gsAACAERCGAMDIZGW1DO3YrCfVgE4YmwUAADBwwhAAGKGsrJ6aI47NulMN6Mzz2Kw3SgEAADAswhAAGLGsrK5D2yVibBZ0I47N+r0u8rlSAAAADIcwBABGLi1XfxssV4euxM6Qx7rIb5QCAABgGIQhADAB3yxXv1YN6MyHusgfjc0CAADoP2EIAExIVlZxh0jcJWK5OnRjHozNAgAA6D1hCABMTFyuHto9IparQzeMzQIAAOg5YQgATFAamxVHZsXRWZarQzeMzQIAAOgpYQgATFhWVnGpehybtVIN6MS8OT7XRX6mFAAAAP0hDAGAicvKat0ccWzWR9WATsxCG4hcKQUAAEA/CEMAgK+ysroJbZfIWjWgE7d1kX8yNgsAAOD0hCEAwB/ScvUYiCxVAzpxEYzNAgAAODlhCADwF2m5+mXzw3hYrg77mwVjswAAAE5KGAIAvCgrq2Vou0SeVAM6YWwWAADAiQhDAIDvSsvVYyBiuTp0w9gsAACAExCGAAA/lJarnwdjs6ALs+Z4rIt8oRQAAADHIQwBADaSldWqOb1tjgfVgL3FUVn3dZHfG5sFAABweMIQAGBjabn6++aH10GXCHRhEdouEWOzAAAADkgYAgBsLSuru9COzbJcHfYXgxBjswAAAA5IGAIA7CQrq6e0XP1ONWBvxmYBAAAckDAEANhLVlZxZFYcnWVsFuxvEYzNAgAA6JwwBADYW1ZWcal6XK6+Ug3Y2/PYrAulAAAA6IYwBADoRFquHveIXKsG7C2OyvpUF/mtUgAAAOxPGAIAdCotV4+7RNaqAXu7qov8c3PMlAIAAGB3whAAoHNxuXpoA5GlasDe4tisz8ZmAQAA7E4YAgAcRBqbdRksV4cuGJsFAACwB2EIAHBQabl67BJZqQbszdgsAACAHQhDAICDy8pqnZarf1QN2Nvz2Ky5UgAAAGxGGAIAHE1WVjfNKYYia9WAvcSxWY91kd8oBQAAwI8JQwCAo8rKahXasVkPqgF7+1AXeQxF3igFAADA9wlDAICjS8vV42L1uGDdcnXYz7w5fjc2CwAA4PuEIQDAyWRltQzt2Kwn1YC9GJsFAADwCmEIAHBSWVk9NUccm3WnGrA3Y7MAAABeIAwBAHohK6vr0HaJGJsF+5kHY7MAAAD+QhgCAPRGWq7+NliuDvt6Hpt1pRQAAADCEACgZ75Zrn6tGrC327rIPxmbBQAATJ0wBADopays4g6RuEvEcnXYz0VzfK6L/EwpAACAqRKGAAC9FZerh3aPiOXqsJ9ZaAMRY7MAAIBJEoYAAL2WxmbFkVlxdJbl6rAfY7MAAIBJEoYAAIOQlVVcqh7HZq1UA/ZibBYAADA5whAAYDCyslo3Rxyb9VE1YC+z0AYiC6UAAACmQBgCAAxOVlY3oe0SWasG7OW+LvJ7Y7MAAICxE4YAAIOUlqvHQGSpGrCXRXM8GpsFAACMmTAEABistFz9svlhPCxXh93FIOTR2CwAAGCshCEAwOBlZbUMbZfIk2rAzuKoLGOzAACAURKGAACjkJarx0DEcnXYzyIYmwUAAIyMMAQAGJW0XP08GJsF+zA2CwAAGBVhCAAwOllZrZrT2+Z4UA3Y2R9js5QCAAAYOmEIADBKabn6++aH10GXCOxjURf55+aYKQUAADBUwhAAYNSysroL7dgsy9Vhd3FsVgxELpQCAAAYImEIADB6WVk9peXqd6oBO4tjsz7VRX6rFAAAwNAIQwCAycjKKo7MiqOzjM2C3V0ZmwUAAAyNMAQAmJSsrOJS9bhcfaUasDNjswAAgEERhgAAk5OWq8c9IteqATszNgsAABgMYQgAMFlpuXrcJbJWDdhZHJv12BxvlAIAAOgrYQgAMGlxuXpoA5GlasDO5s3xe13kc6UAAAD6SBgCAExeGpt1GSxXh33EzpDYIXKjFAAAQN8IQwAAkrRcPXaJPKkG7OyDsVkAAEDfCEMAAL6RldW6OWIg8lE1YGfzYGwWAADQI8IQAIAXZGV105zOg+XqsCtjswAAgN4QhgAAfEdWVqvQjs16UA3YmbFZAADAyQlDAABekZarx8XqccG65eqwm3lzfK6L/EwpAACAUxCGAABsICurZWjHZlmuDruZhTYQuVIKAADg2IQhAAAbysrqKS1Xv1MN2NltXeSfjM0CAACOSRgCALClrKyuQ9slYmwW7OYiGJsFAAAckTAEAGAHabn62+ZYqQbsZBaMzQIAAI5EGAIAsKO0XD12iFyrBuzM2CwAAODghCEAAHvKyiruEIm7RCxXh93EsVmPxmYBAACHIgwBAOhAXK4e2j0ilqvDbmIQEgORhVIAAABdE4YAAHQkjc2KI7PeB8vVYRdxVNZ9XeT3xmYBAABdEoYAAHQsK6uH0I7NWqkG7GQRjM0CAAA6JAwBADiArKzWabn6R9WAnRibBQAAdEYYAgBwQFlZ3YS2S2StGrA1Y7MAAIBOCEMAAA4sLVePgciDasBOFqHtEpkpBQAAsAthCADAEaTl6nGx+mWwXB12Ecdmfa6L/EIpAACAbQlDAACOKCurZWi7RJ5UA7YWR2V9qov8VikAAIBtCEMAAI4sLVePgYjl6rCbq7rIPxubBQAAbEoYAgBwImm5+nkwNgt2YWwWAACwMWEIAMAJZWW1ak5vg+XqsAtjswAAgI0IQwAATuyb5erXQZcI7MLYLAAA4FXCEACAnsjK6i60Y7MsV4ftPY/NmisFAADwd8IQAIAeycoqBiExELlTDdhaHJv1WBf5jVIAAADfEoYAAPRMGpsVR2bF0VnGZsH2PtRFHkORN0oBAABEwhAAgJ7KyiouVY/L1VeqAVubN8fvxmYBAACRMAQAoMdSl0gcm3WtGrA1Y7MAAICvhCEAAAOQlqu/a461asDWjM0CAICJE4YAAAxEWq4eA5GlasDW5qEdm3WmFAAAMD3CEACAAUljsy6D5eqwi9gZ8rku8iulAACAaRGGAAAMUFquHrtEnlQDtnZbF/knY7MAAGA6hCEAAAOVldW6OWIg8lE1YGsXoe0SMTYLAAAmQBgCADBwWVndNKfzYLk6bGsWjM0CAIBJEIYAAIxAVlar0I7NelAN2JqxWQAAMHLCEACAkUjL1eNi9bhg3XJ12I6xWQAAMGLCEACAkcnKahnasVmWq8N2ZqENRBZKAQAA4yIMAQAYoaysntJy9TvVgK3d10V+b2wWAACMhzAEAGDEsrK6Dm2XiLFZsJ1FczwamwUAAOMgDAEAGLm0XP1tc6xUA7YSg5BHY7MAAGD4hCEAABOQlqvHDpFr1YCtxFFZxmYBAMDACUMAACYkK6u4QyTuErFcHbazCMZmAQDAYAlDAAAmJi5XD+0eEcvVYTvGZgEAwEAJQwAAJiiNzYojs94Hy9VhG89js26VAgAAhkMYAgAwYVlZPYR2bNZKNWArV3WRf26OmVIAAED/CUMAACYuK6t1Wq7+UTVgK3FsVgxELpQCAAD6TRgCAMBXWVndhLZLZK0asLE4NuuTsVkAANBvwhAAAP6QlqvHQORBNWArxmYBAECPCUMAAPiLtFw9Lla/DJarwzaMzQIAgJ4ShgAA8KKsrJah7RJ5Ug3YmLFZAADQQ8IQAAC+Ky1Xj4GI5eqwnTg267E53igFAACcnjAEAIAfSsvVz4OxWbCNeXP8Xhf5XCkAAOC0hCEAAGwkK6tVc3obLFeHbcTOkNghcqMUAABwOsIQAAA29s1y9eugSwS28cHYLAAAOB1hCAAAW8vK6i60Y7MsV4fNzYOxWQAAcBLCEAAAdpKVVQxCYiBypxqwMWOzAADgBIQhAADsLI3NiiOz4ugsY7Ngc3Fs1idjswAA4DiEIQAA7C0rq7hUPS5XX6kGbOyiOT7XRX6mFAAAcFjCEAAAOpG6ROLYrGvVgI3NQhuIXCkFAAAcjjAEAIBOpeXq75pjrRqwsVtjswAA4HCEIQAAdC4tV4+ByFI1YGPGZgEAwIEIQwAAOIg0NusyWK4O25gFY7MAAKBzwhAAAA4qLVePXSJPqgEbi2Oz7o3NAgCAbghDAAA4uKys1s0RA5GPqgEbWzTHo7FZsJnm78qsOfn7AgC8/FyqBAAAHFNd5PPmdB/acUDAj8Uxc9dZWS2VAv64j8zS8e/miB1UQhBec95cQ1fKADBtwhAAAI4ujf6JgciFasDGlqENRezgYSr3inn4a+jx/GPYRbx2xpGd6+b4v+nHX4QkANMhDAEA4GTSkugPoX2rF/ix+OXdZVZWdvAwpnvBLLSdHfH473SeqQxHtE5HvLY+ByVPwmeAcRGGAABwUmkfQuwSMeIENmNsFkO/5n8besxVhZ5fb5/CNyGJThKA4RKGAADQC3WR3zanK5WAjS2DsVn0+7ou+GCs1qENSP5P+LOLZK0sAP0mDAEAoDfSfPhPwdgs2FT8Eu69L+HowfU7XrfjNTyGHv9OZ9dypuS5i+R/goAEoJeEIQAA9Er6Qi0GInPVgI3EL+DiHpEHpeCI1+rnTo//TueZqsCL12cBCUBPCEMAAOiltFz9ViVgY3dZWV0rAwe6Js9DG3ro+oD9rMM3AYkdJADHIwwBAKC3LFeHrRmbRVfX33n4M/yYqwgc1Cr82T2ysgsK4DCEIQAA9FoamxU7RBaqARsxNotdrrXzIPyAvvgaioR2QftKwA3QDWEIAACDUBf5RWi7RIxmgc0Ym8Vr19TYcRevq8IP6L91+LN7RDgCsCNhCAAAg1EX+Sy0gchcNWAj8e3icyNXSNfPeO38KZ0FyzDsa/sq/BmOuMYDbEAYAgDA4NRFftOcPqgEbCR+Sfbekt5JXiufOz/ieaYiMFoxHPlPaIMR13qA7xCGAAAwSGnEy6fgCz7Y1MesrG6UYdTXxXg9/DYAAaYnBuCr8Gc4slYSgJYwBACAwUrL1ePYLF/6wWZWoe0SMVJlPNfBeWhHX+n+AF7yPFLrP7pGgKkThgAAMHh1kS+a020wAx82YWzWsK938Tr3bfeH6x6wzfU/Xvtj18iDYByYGmEIAACjkMbDxLFZZ6oBGzE2a1jXN+OvgK7FrpHfQhuMrJUDGDthCAAAo1IXeewQuVIJ2MgqGJvV12vZLLTBx89ByAsc3vM4rd+ae8KTcgBjJAwBAGB00gz92CVifAz8WAxCzn351Ytr1ywIQIDTWzfHQxCMACMjDAEAYJQsV4etXWdldacMR79WzYIABOivdRCMACMhDAEAYNTqIo8jsz4EXSKwifiF16WxWQe/Ls2CAAQYnnUQjAADJgwBAGD06iKPXzbGLhFfOsKPrUO7R8QXXd1eh2IguwgCEGA89wrBCDAowhAAACYhfREZO0QsV4fNGJvVzXUndoD8FIzsA8YrhiG/NcdDc99YKwfQV8IQAAAmpS7y+IVk7BIxNgt+zNis3a8zzwGIaw0wJavwZzDi3gH0ijAEAIDJSW9rf2qOuWrAD62DsVmbXFdmzemX0AYgMxUBCMvm+E9z/3hQCqAPhCEAAExWXeQ3oR2dBbwuvt0bx2YtleIv15DnMVgxBLEHBOBl69B2Gv5qjBZwSsIQAAAmLS1Xj10iM9WAH1qGNhSZ9OiT5roxD+0i9IX/SQBsZRWM0QJORBgCAMDkpbe7b4MvNmETcVzW5dTGZqUxWPEaEUOQmf8ZAOwlBiHP3SLGMAJHIQwBAIDEcnXY2GTGZqXrQgxALvyxAxxEDEN+DbpFgAMThgAAwDfS299xbJb5//BjyzDCsVm6QABOQrcIcFDCEAAAeIHl6rCx0YzNSrtA4jJ0XSAAp7Vqjt+m0IEIHI8wBAAAviN9MRrHZs1UA14V3+aNgcjDAP+ex7F4i9CGIP6uA/Tv/hJHaC2be8xaOYB9CEMAAOAV6YvSGIh4Uxx+7C4rq+uB/N2ehbb7K/7dticIoP+Woe0WWSkFsAthCAAAbKAu8qvQfnHqS1N4XRyX9b6vb/CmheixC2TujwpgsPeZX43QArYlDAEAgA3VRR6XqscuEcvV4XW9GptlFBbAaO81cYRW7Er8ohzAjwhDAABgS3WR3zanK5WAHzrp2Kw0CisGIIugqwtgzJbN8dFeEeA1whAAANhBWq7+KfiCFX7k6GOz0t/Pn0MbggAwHbEj8Vd7RYCXCEMAAGBHafRODETmqgGvOsrYLPtAAEhWoV22vlQK4JkwBAAA9pSWq9+qBPxQHGFyc4C/g4vm9CHYBwLAX63TvWepFIAwBAAAOmC5OmxsFdqxWV/2/DsXO7NiEBk7QYyrA+A16+b4LVi2DpMmDAEAgI6kL2djh8hCNeBV8Yuo97vMdBeCALDn/efXIBSBSRKGAABAx9Legtgl4otaeN3GY7Oav1ez0I7CuvB3C4A9CUVggoQhAABwAOmL2xiIzFUDXrUKr4zN+iYEWSgVAB0TisCECEMAAOCA6iK/Ce0XucD3/WNslhAEgCNbhrZjca0UME7CEAAAOLC0XP1Tc8xUA1513RwPQQgCwOnchTYU0SkCIyMMAQCAI0hLn+PYrAvVAADoNeOzYISEIQAAcER1kS+a022wABoAoO+EIjAiwhAAADiytAshjs06Uw0AgN4TisAICEMAAOBE6iKPHSJXKgEAMAgxCIn7RO6UAoZHGAIAACdUF/k8tF0ixmYBAAzDOrShyFIpYDiEIQAAcGKWqwMADNK6OS6zslopBfSfMAQAAHqiLvI4MutD0CUCADAkq9B2iqyUAvpLGAIAAD1SF3lcqh67RCxXBwAYlofmuM7Kaq0U0D/CEAAA6Jk0Nit2iFiuDgAwPHHBeuwU+aIU0B/CEAAA6Km6yOMOkdglYmwWAMCwxCDk16ysbpQC+kEYAgAAPZa6RD41x1w1AAAGZx3a0VkPSgGnJQwBAIABqIv8JrSjswAAGJ5VaEORJ6WA0xCGAADAQKTl6rFLZKYaAACDtAxtKGKfCBzZv5QAAACGIb1J+C49RAMAMDyL5vg9df0Cx3yeUgIAABie5gE6PkjfBsvVAQCGat0cl1lZrZQCDk8YAgAAA1UX+Sy0Y7POVAMAYLBWoQ1F1koBhyMMAQCAgbNcHQBgFD42x519InAYwhAAABiBusjnzek+WK4OADBk69AuWH9QCuiWMAQAAEaiLvK4PyQGIheqAQAwaKtgdBZ0ShgCAAAjUxf5VWjHZlmuDgAwbEZnQUeEIQAAMEJ1kcel6rFLxHJ1AIBhW4e2S2SlFLA7YQgAAIxYXeS3zelKJQAABi/uEbnUJQK7+ZcSAADAeDUPy9fN6X1zeGgGABi2uBfu9zQSFdj22UgJAABg/NJy9U/NMVcNAIDBWzXHdVZWT0oBmxGGAADAhKQ3CW9VAgBgFD5mZXWjDPBjwhAAAJgYy9UBAEZlHSxYhx8ShgAAwASlsVmxQ2ShGgAAo3AX2k4Ru+LgBcIQAACYsLrI4yLO2CXyRjUAAAZvHXSJwIuEIQAAMHF1kc9CG4jMVQMAYBR0icDfCEMAAICv6iK/aU4fVAIAYBTWQZcI/EEYAgAA/KEu8nlou0RmqgEAMAq6RCAIQwAAgL9Jy9VjIHKhGgAAo7AOukSYOGEIAADworrIF83pNliuDgAwFndZWV0rA1MkDAEAAL4rLVf/1BxnqgEAMApPoe0SeVIKpkQYAgAA/FBd5LFD5EolAABGI+4RuVEGpkIYAgAAbCQtV49dIsZmAQCMwyq0XSJrpWDs/qUEAADAJtLCzbfN8aAaAACjMG+Oz2lXHIz7eUYJAACAbTUPzHFk1q1KAACMRnzhJXaJfFEKxkgYAgAA7KQu8rhU/T5Yrg4AMBbr5nhvuTpjZEwWAACwk/SQfN4cd6oBADAKs9COzbpRCkb3/KIEAADAvpoH5ovQdolYrg4AMA6r0HaJGJvFKAhDAACATtRFHoOQT6FdxAkAwPDFICTuEXlQCoZOGAIAAHQqjVX4oBIAAKNxl5XVtTIwZMIQAACgc2m5euwSmakGAMAoxH1xcWzWWikYIgvUAQCAzqXl6u+aY6kaAACjEF92+Zx2xcHwnlGUAAAAOKTmgXnRnG6D5eoAAGNhbBaDIwwBAAAOri7yWWjHZp2pBgDAKKxCOzbri1IwBMIQAADgaCxXBwAYlRiExEBkpRT0nTAEAAA4qrrI583pPliuDgAwFtdZWd0pA30mDAEAAI6uLvK4PyQGIhZwAgCMw0NzXBqbRV8JQwAAgJOpi/wqtGOzLFcHABi+p9AGIk9KQd8IQwAAgJOqizwuVY9dIparAwAMX+wMiYHIg1LQJ8IQAACgF+oiv21OVyoBADAKH7OyulEG+kIYAgAA9EZd5HGHSOwSMTYLAGD47BGhN4QhAABAr6Tl6p+aY64aAACDZ48IvSAMAQAAeiktV79VCQCAwYudIe+zslopBaciDAEAAHrLcnUAgFGJHSJLZeAU/qUEAABAX6VxCufN4aEZAGD47usiv1cGTvJsoQQAAMAQWK4OADAaX194sVidY9IZAgAADELzsPzQnN41x0o1AAAGLY5AfUwjUeE4zxNKAAAADE3z4HzTnD6oBADAoFmsztEIQwAAgEGqi3we2rFZM9UAABg0i9U5OGOyAACAQUpvEMaxWQ+qAQAwaHGx+q0ycNDnByUAAACGrnl4XjSn+ABtuToAwHAtm+PaYnUOQRgCAACMQl3ks+b0KbQLOQEAGKan5jgXiNA1YQgAADAqacTClUoAAAxWDETiHpEnpaArwhAAAGB00nL12CVibBYAwDDFzpBzgQhdsUAdAAAYnbRc/W2wXB0AYKjiSy2PdZFfKAWdPCMoAQAAMGbNA3QcmXWrEgAAgxVHZi2VgX3oDAEAAEateXC+a07vQjt7GgCA4bmvi/xGGdjruUAJAACAKWgeoOOohQ/BcnUAgKFaZmV1qQzsQhgCAABMSpo7fR8sVwcAGCKBCDsxJgsAAJiatRIAAAzWoi7yx9T1CxvTGQIAAExG89B81pweg64QAIChi/vgzrOy+qIUbEIYAgAATIIgBABgdAQibMyYLAAAYPTqIl8EQQgAwNjEl10+p5de4FU6QwAAgFFLQci9SgAAjFbsDIkdIk9KwfcIQwAAgNEShAAATIZAhFcJQwAAgFEShAAATI5AhO+yMwQAABidushvgyAEAGBq4n64RztEeIkwBAAAGJXm4TeGIFcqAQAwSc+ByEIp+JYxWQAAwGikIMSDLwAA0WVWVktlIBKGAAAAoyAIAQDgBQIRvhKGAAAAgycIAQDgFQIRhCEAAMCwCUIAANiAQGTihCEAAMBgCUIAANiCQGTChCEAAMAgCUIAANiBQGSihCEAAMDgCEIAANiDQGSChCEAAMCgCEIAAOiAQGRihCEAAMBgCEIAAOiQQGRChCEAAMAgCEIAADgAgchECEMAAIDeE4QAAHAgX5rjPCurJ6UYN2EIAADQa4IQAAAOTCAyAcIQAACgtwQhAAAciUBk5IQhAABALwlCAAA4MoHIiP1LCQAAgL6pi/w2CEIAADiuN83x2HwWPVOK8dEZAgAA9Erz8LloTvcqAQDAiayb411WVl+UYjx0hgAAAL0hCAEAoAdmoe0QeaMU46EzBAAA6AVBCAAAPRN3h5zrEBkHnSEAAMDJCUIAAOihuDvkkzKMg84QAADgpNKCysfQLqwEAIC+WWZldakMwyYMAQAATkYQAgDAQAhEBs6YLAAA4CQEIQAADMii+fx6pQzDpTMEAAA4uuZBMgYgn5tjphoAAAzIZVZWS2UYHmEIAABwVCkIiR0hZ6oBAMAAvc/K6kEZhsWYLAAA4NgEIQAADNl9GvnKgAhDAACAo2keGu+DIAQAgGH72uksEBkWY7IAAICjSEHIQiUAABiJp+Y4z8rqi1L0n84QAADg4OoivwqCEAAAxiV2hjymnXj0nDAEAAA4qObhcNGcblUCAIAROvNZdxiMyQIAAA4mzVH+rBIAAIzcXVZW18rQXzpDAACAg0hByKNKAAAwAVepI5qe0hkCAAB0Ls1Njh0hM9UAAGBC4kL1lTL0j84QAACgUykIiR0hM9UAAGBiPqUOaXpGGAIAAHQtLpD0AAgAwBTFF4Pu0wtC9IgwBAAA6Ezz0BeDkIVKAAAwYfHFoE/K0C/CEAAAoBNpYeSVSgAAQJg3n4/vlaE/LFAHAAD2luYif1YJAAD4i8usrJbKcHrCEAAAYC91kc9CG4SYiwwAAP90npXVShlOy5gsAABgZ2kxZJyHLAgBAICXfUqd1JyQMAQAANhHnIPswQ4AAL4vvjh0n14k4kSEIQAAwE6ah7mb5nShEgAA8EPxBSIL1U9IGAIAAGytLvJFc/qgEgAAsLGL9EIRJ2CBOgAAsJU07/gx2BMCAAC7eJ+V1YMyHJcwBAAA2Fiac/y5OWaqAQAAO/nSHOdZWT0pxfEYkwUAAGzjUxCEAADAPixUPwFhCAAAsJHmYe22Oc1VAgAA9hZHz94qw/EYkwUAAPxQXeQXoe0KAQAAunOdldWdMhyeMAQAAHiVhekAAHBQcX/IShkOSxgCAAB8V5pjHIOQM9UAAICDiAvV32Zl9UUpDsfOEAAA4DVxjrEgBAAADie+gGQk7YEJQwAAgBfVRX7VnBYqAQAABzdvPn/fKMPhGJMFAAD8Q9oT8lklAADgqN5nZfWgDN0ThgAAAH+R9oTEIGSmGgAAcFRxb8i7rKzWStEtY7IAAIC/uw+CEAAAOAX7Qw5EGAIAAPwh7Qm5UAkAADiZs+Zz+a0ydMuYLAAA4Ct7QgAAoFfOs7JaKUM3hCEAAIA9IQAA0D9xf8jbrKy+KMX+jMkCAACi2IY/UwYAAOgN+0M6JAwBAICJq4t80ZwWKgEAAL0zbz6v3yjD/ozJAgCACWserGahHY/1RjUAAKC33mVl9aQMu9MZAgAA0xbb7gUhAADQ88/tac8fOxKGAADARKV2+zOVAACA3puFds8fOzImCwAAJqgu8nlzelQJAAAYlPdZWT0ow/aEIQAAMDGpvT7uCZmpBgAADMqX0O4PWSvFdozJAgCA6bkPghAAABiiN+nzPFsShgAAwITURX7RnC5UAgAABmue9v+xBWOyAABgItJ4rN9D+zYZAAAwbHFc1pMybEZnCAAATEdspxeEAADAeD7fsyFhCAAATEBd5FfBeCwAABiTs+Zz/q0ybMaYLAAAGLnmAWnWnD4HXSEAADBG51lZrZThdTpDAABg/IzHAgCAEX/eT/sBeYUwBAAARiyNx5qrBAAAjNasOT4ow+uMyQIAgJEyHgsAACbFuKxX6AwBAIDxMh4LAAAm9PnfuKzv+19KAAAA49M8BF0E47EAhmT1t//8P6/8/z41x5cd/h1n4fWQ/N9/+89v0j8DwDDMQjsu61op/smYLAAAGJn0NtjvQVcIwKk9hxbr5vi/6cdP6f+2zspqPbD7y7dhyiwd0X+n//7b/w6A0zEu6wXCEAAAGJm6yD81pwuVADi453BjHdqw4zn8eMrK6stUi5JC+eeOknk6x64TnSYAxxHvS++mfC96iTAEAABGpC7yeXN6VAmAzq1CG3Y8hx5PvmTa+V41C20HSQxG/nc6/2iEFwDbuWvuU8ZlfUMYAgAAI5HexP0cjCgB2Mdzt8f/hD9Dj7WyHO0+9hyM/He6n81VBmBnxmV9wwJ1AAAYj6sgCAHY1lP4JvzIyupJSU4jddqswt+WyaddJc8BSTzPVQtgI7fN8U4Z0n1GCQAAYPjSF0WfVQLgh2LYsQpt+LEy6mqw9715aIORf6fzTFUAXvSxudfdKIMwBAAARqEu8rgnZK4SAP+wDm348Z8g/BjzfXCW7oP/TueZqgD84Z3OR2EIAAAMXl3ki+Z0rxIAf3gIbefHg30fk703zoJwBOBZfBngfOpFEIYAAMCApWWzvzfHG9UAJix2e8QA5D9ZWT0oBy/cL593jfwUdFIC03Td3CPvplwAYQgAAAxYXeSxI2ShEsAErcOfAchKOdji3hlfIJiHP4ORmaoAExBfHHg75XGRwhAAABiotDz2USWACYlf4Cyb4zezz+nwfhq7Rn5ujosgGAHGLY6PfD/V37wwBAAABqou8s/N6UwlgJEzAotj3ltnoQ1FfnaPBUbqfKodlcIQAAAYoLrIr5rTrUoAI7Zqjt9C+xbrF+XgBPfaWWiDkV+CjhFgPNbNffXtFH/jwhAAABgYS9OBEVuHNgBZZmW1Vg56dO81SgsYk4/NffZmar9pYQgAAAyMpenACMXxV78Zg8VA7sMxEPnJvRgYuLdTe/FAGAIAAANiaTowIs/L0H/VBcJA78mxQ/N5jJb9IsDQrJr77/mUfsPCEAAAGBBL04ERWId2PMdSKRjR/Tnem2MoEsMRYyyBoXg/pa5MYQgAAAxEXeSL5nSvEsBArUIbgqyUghHfq5+7RT4Eu0WA/ls3x7vm3vxlCr9ZYQgAAAyApenAgC1DG4KslYKJ3bvnoV26vlANoMcms0xdGAIAAANQF3l8QPmgEsBA2AcCf97DZ6EdobUIXmoA+mkSy9SFIQAA0HPpS5TfVQIYgBiC/Nocd1MZuQFb3M9jELIIbTAyUxGgRyaxTF0YAgAAPVcX+WNzmqsE0GNCENju3r4I9ooA/bqPvxt7d4gwBAAAeizNG39UCaCnhCCw/30+hiJz1QBObNncyy/H/BsUhgAAQI/VRf65OZ2pBNBDH4MQBLq638+DUAQ4vfPmvr4a629OGAIAAD2VRmjcqwTQM8vm+GgxOhzk3j8PQhHgdEa9O0QYAgAAPZSWrMal6W9UA+iJVXNcCkHgKJ8D5kEoApxGvNcvx/gb+5c/WwAA6KWrIAgB+uEptGMzzgUhcBxxTE16OzvO7/f3DjimD6O9tvqzBQCAfqmLfNac4q4QYQhwSuvQjsNaKgWc/LNBfEnig88GwJFcN/f/u7H9pnSGAABA//iyAzi1uBz9nSAE+iF9Kfk2/d0EOPjzSBrbO65rqT9XAADoj+ah4yy0XSEAp/AQ2rdB10oBvf2sMGtOt81xoRrAAcXu0Jsx/YaEIQAA0CN1kT8Gy1KB41uHdmHqSilgMJ8Z4ueF++aYqQZwAF9C2yW6HstvSBgCAAA9kb7UeFQJ4MhG9+YnTOzzg30iwKEsm88Il2P5zdgZAgAA/fFBCYAjWjXHW0EIDNs3+0QeVAPo2CKN5hvH9dKfJwAAnF7zkLEI7agLgEOLYy+uLUeHUX6emAejs4BujaY7RBgCAAA9UBf578EXF8DhxTfH426QL0oBo/5ccRN0nALdOR/DXjFjsgAA4MRSV8hMJYADWof2i4z3ghAYvzT+7l1ox+EB7GsU4arOEAAAOKG6yOOy089BGAIcTtwn8FEIApP9rGHBOtCFwXeH6AwBAIDTil9QzJQBOIB1aL+4uBaEwHSlBeu6RIB9Db47RGcIAACcSOoKibtCvKkJdE03CPDSZw9dIsA+Bt0dojMEAABOJ34h4csIoEsx/HivGwR4yTddIk+qAexg0N0hOkMAAOAEdIUAB/DQHJdCEGDDzyI3YSRLkYGjGmx3iM4QAAA4DV0hQFdi+BFDkPeCEGBTzfXiJrRdImvVALYw2BBVZwgAAByZrhCgQ6vQBiFrpQD2+Fxy2xwL1QA2NMjuEJ0hAABwfLpCgC7EBennghBgH7GjrDkumx++D22nGcCPDLI7RGcIAAAcka4QoAPr0HaDrJQC6Phzyqw5fWqOM9UAfmBw3SE6QwAA4Lh0hQD7iEvS3wlCgEOInWbNEfeI3KkG8AOD6w7RGQIAAEeiKwTY03VWVr6gBI71ueWiOd373AK8YlDdITpDAADgeHSFALtYh7YbRBACHE1zzfnaidYcT6oBfMegukN0hgAAwBHoCgF2FL+MjPtBLDUGTvkZ5rY5FqoBvGAw3SE6QwAA4Dh0hQDb+piV1XtBCHBK8RrUHJfNDy9VA3jBYLpDdIYAAMCB6QoBthTDj/eWpAM9/Exz1pwefaYB/iaO8+z9SD2dIQAAcHi6QoBNxS8S3glCgD5KX3a+DfaIAH/1yyCuYf6cAADgcHSFAFtYNse1sVjAQD7f2CMCfOtt8xlm3edfoM4QAAA4rIsgCAF+LIYgFqUDg/DNHpGPqgEkvd8dojMEAAAOqC7y2BUyUwngO+wHAYb+WWcR2i4RL38A/9XnFzt0hgAAwIGkLwdmKgF8R5y5fy4IAYasuYYt47UstOEuMG1Xff7FCUMAAOBwPigB8B3PQYglxMDgpWvZebBYHabul7RTqJeEIQAAcADNQ0DcFTJTCeAFy6ys3tkPAoyJQAQI7bi8RV9/ccIQAAA4jF+UAHjBx7R0GGB0UsgbA5GlaoDnoN5do/zZAABAt+oinzenR5UA/uYyzdYHmMLnofvQ4zfEgel95tEZAgAA3ftZCYBvfH1TWhACTEnqgrtTCfA81Jvrkj8XAADoTl3ks+b0u0oAyXMQYoY+MNXPRovmdK8SMDnx88+qT78gnSEAANCtD0oAJE9BEAJMXOqKsysJpqd33SE6QwAAoCN1kb8JbVfIG9WAyXsOQr4oBYAOEZiot81noXVffjE6QwAAoDtXQRACCEIA/kGHCEzSok+/GGEIAAB0x+J0YBUEIQAvSoHIeWj3KQHj90uffjHCEAAA6EAa/TBTCZi0ZVZWghCAV6SFygIRmIY36TmpF4QhAADQDV0hMG0xCDH+BWADzfXy6zjBIBCBKehNd4gwBAAA9lQX+VlzmqsETJYgBGBLAhGYjLPmeakXz0rCEAAA2N8vSgCTJQgB2NE3gQgwbr3oos/8OQAAwO7qIn/TnP6fSsAkCUIAuvk8tWhO9yoBo/Zfp96rpjMEAAD2c6UEMEmCEICONNfTZXNyTYVxW5z6FyAMAQCA/VicDtMjCAHomEAERu/ko4WFIQAAsKO6yC+a00wlYFIEIQAHIhCBUZudepG6MAQAAHZncTpMy5MgBOCwUiDyUSVglE7aVS8MAQCAHdRFPmtOc5WAyXhqjnNlADi8rKxumtNSJWB0Fs1z1JtT/cuFIQAAsBtdITAdX4OQrKy+KAXAcaROvKVKwOgsTvUvFoYAAMDAPsQDRyUIATiRFIg8qQSMysleKhOGAADAluoiXzSnNyoBoxcDkEtBCMBJxRGFAhEYj5MtUheGAADA9n5WAhi9GIDEjhBfwAGcUAqk36frMuB5avfriboDAMDm0uL031UCRu99VlYPygDQm89gZ83pMejOhbH4r2N33+oMAQCA7VicDuN3KQgB6JfUqXepEjAaF8f+FwpDAABgOwslgFG7y8pqqQwA/ZOC6muVgFE4+ktmwhAAANhQXeTx7SWjGWC8lllZ+ZINoMea6/RdvF6rBAzeWRpBfDTCEAAA2JzF6TBecfyKIARgALKyukzXbWDYjtodIgwBAIANpLeWLlQCRiku7zw/9hJPAPZy3hxrZYBBO+rzlTAEAAB6+EEdOBpBCMAApev2+3QdB4ZplkYRH4UwBAAANvOLEsAoXWdlZdQKwACl67cRhzBsPx3rXyQMAQCAH6iL/Kw5zVQCRucuK6ulMgAMV7qO36kEDJbOEAAA6BGL02F8VllZeZsYYATS9VyXHwzTm7rIF8f4FwlDAADgxxZKAKOyDu2ceQDGIy5Utz8Ehukoo7KEIQAA8Iq00O+NSsCovLcwHWBcvlmoDgzPRfPcdfBnLmEIAAC87iclgFG5tDAdYJya6/uqOX1UCRikg+8OEYYAAMB3pLeTFioBo7G0MB1g3Jrr/E1zWqkEDM7B9zQKQwAA4PsulABGI3aDWJgOMA1xXJZxiDAs87rIZ4f8FwhDAADg+4zIgnGIX4hd2hMCMA32h8BgHfRlNGEIAAC8II3I0hkC4/DRnhCAabE/BAbpoKOyhCEAAPCyhRLAKDxkZXWnDADTk/aHCMNhOM4OOSpLGAIAAC/7WQlg8L6Ox1IGgEmzPwSG5WDd+cIQAAD4m/Q20plKwOC9tycEYNqa+8A6GJcFQ3Kwl9KEIQAA8E92hcDw3aV58QBMXBqX+KASMAgHG5UlDAEAgH8yIguG7Skrq2tlAOAbcWyibkEYhoO8nCYMAQCAbxiRBaNgTwgAf5HGJro/wDD8dIifVBgCAAB/ZUQWDNvHrKyelAGAv2vuD3FUlnFZ0H/zusjfdP2TCkMAAOCvjMiC4YrjsW6UAYBXGJcFw9D5S2rCEAAASNLbR0ZkwXAZfwLAq4zLgsHofFSWMAQAAP5kRBYMl/FYAGzEuCyY5rOZMAQAAP70kxLAIBmPBcC2roNxWdBrdZF3GogIQwAAIPwxIktnCAyTcScAbCUrq3Vz+qgS0GudvqwmDAEAgJYgBIbpzngsAHbR3D/umpN7CEzkGU0YAgAArX8rAQzOOnirF4D96C6E/npTF/lZVz+ZMAQAAFo6Q2B4rrOyMu8dgJ2l7sI7lYDe+rmrn0gYAgDA5NVFPm9Ob1QCBuUhK6sHZQCgA7HLULgO/TTv6icShgAAQMeL+YCDi19YXSsDAF1IXYbuK9BPZ3WRz7r4iYQhAABgRBYMza9ZWa2VAYCuNPeVZXNaqQT00ryLn0QYAgDApKW3jGYqAYOxzsrqRhkAOICPSgC91EknvzAEAICp0xUCw3KpBAAcQlZWq+a0VAnonXkXP4kwBACAqfu3EsBgrNIXVQBwKJapQ/+8qYt8vu9PIgwBAGDqdIbAcOgKAeCg0k6qX1UCemfvUVnCEAAAJqsuckEIDMedpekAHOue0xzuOdAv831/AmEIAABTZkQWDEMcV2KpLQBHkZWV+w70z1ld5G/2+QmEIQAATJnOEBiGj+mLKQA4iua+s2xOTyoB43l+E4YAADBJdZHPmtNMJaD31llZ3SkDACdwrQTQK3t19gtDAACYqrkSwCAYUwLASWRltWpOK5WAcTzDCUMAAJgq+0Kg/1ZpTAkAnIpQHvpjljr8dyIMAQBgquwLgf7zBRQAJ5W6Qx5UAnpjvus/KAwBAGBy6iI/a05vVAJ6bZW+gAKAU7M7BPrjp13/QWEIAABTNFcC6D1dIQD0QlZW6+a0VAkY9rOcMAQAgCmyLwT6TVcIAH0jpId+eJM6/bcmDAEAYIrmSgC9dqkEAPSJ7hAY/vOcMAQAgEmxLwR6b5m+cAKAvtEdAv2wU6e/MAQAgKmZKwH0mi+aAOgl3SEw7Gc6YQgAAFNjXwj0l64QAPpOaA+nt9PeEGEIAABTM1cC6C1fMAHQa7pDoDeEIQAA8D32hUCvfdQVAsBA/KoEcHJbd/wLQwAAmJK5EkAvfWmOO2UAYAiysnpqTiuVgP/P3v2kOW2sbwOWRxqmvxVEWUE6K8BZwSErOM4KAiMNIUOPgBV0swI6K0CsAGcFUVbw8xl6pE+FxTlAGtruVulP6b6vyzEBEuDJlS7Jj+qted3bKUMAAFiSH0UAk/RqtT3sxQDAjBjtCOMqmjIvzvkHlCEAACzJWgQwSXaFADArq+2hyuwOgbGddW6IMgQAgEVoyjycFVJIAibn2q4QAGbqtQhgVGedG6IMAQBgKdYigEkyZgSAWVptD9ftWy0JGI2dIQAA8NALZWAQYVdILQYAZuyVCGA063N+sjIEAICleCQCmBy7QgCYu+v2ZdwjjKQp8/WpP1cZAgDAUqxFAJNyY1cIAHPXnXt1LQkYzckTAJQhAAAkrylzI7JgeowVAcCaBjzUyRMAlCEAACyBMgSmpVptD5UYAEhBt9PxRhIw7Xs9ZQgAAEvgvBCYltciACAxdofAOIqmzC9O+YnKEAAAlsDOEJiOerU9XIsBgJR0Ox5rScB07/eUIQAAuDgGhmRXCACpsjsExrE+5ScpQwAASFpT5mspwKS8FAEAiboWAYzipLHIyhAAAFJnVwhMx/Vqe9iLAYAUdWvctSRgmvd8yhAAAFL3owhgMowPASB1xkHC8C5OOURdGQIAQOoKEcAk7Fbbw04MAKTMQeowmjt3hyhDAABI3VoEMAl2hQBgzQNGu+9ThgAAkKymzJ0XAtMQZqjfiAGAhbDmwfDuHI+sDAEAIGWFCGASbhycDsBStGtenSlEYGjGZAEA4IIYGJ3DZAFYmj9EAIMq7voJyhAAAFL2SAQwuro7TBYAFqNd+66z45hIYCBNma+/9ePKEAAAUlaIAEbnEFkAlsqoLBjWNycDKEMAAEhZIQIYnQ+CAFgqYyJhWN9/6weVIQAAJOmuLdLAIKruEFkAWJxuTKR1EIZjZwgAAItUiABG54lYAJbODkkYzvpbP6gMAQAgVYUIYHQ+AAJg6TwYAANqyvyr94HKEAAAUvVIBDCqm9X2sBcDAEvWroW7zKgsGFLxtR9QhgAAsLiLYGAQf4gAAD6wUxKGs/7aDyhDAABIVSECGJUPfgDgyKgsGM73X/sBZQgAAMlpyvxSCjAqI7IAoGNUFgyq+NoPKEMAAEjRhQhgVEZkAcDn7JiEYay/9gPKEAAAFnUBDAzCBz4A8DmjsmAgTZnf+nCcMgQAgBR9JwIYjRFZAPCFblSW9RGGcevYZGUIAACLufgFBvFOBABwKzsnYcT7QWUIAAApKkQAo/FBDwDczplaMAxjsgAAWIxCBDCK3Wp7qMUAALeqRACDeHTbdypDAABISlPmhRRgNJUIAOB23ZladlBCfHaGAACwCIUIYDTGfwDAtzlbC+JzZggAAMu98AWi26+2h0oMAPBNdobAAG6bGKAMAQAgNRcigFFUIgCAb+vO1qolAdEVX36HMgQAgNR8LwIYhRFZAHAau0Mgvn9MDFCGAACQmkIEMIpKBABwEueGQHz/mBigDAEAIDWFCGBwdTf2AwC4WyUCiO7Rl9+hDAEAIDWFCGBwlQgA4DSr7WHfvu0kAcNShgAAkIymzB2eDuMw7gMAzuOsLYhr/eV3KEMAAEjJpQhgFJUIAMDaCVOmDAEAAOAhnBcCAGdq185KChBXU+brT/9eGQIAQErsDIHhVSIAAGsoTJ0yBACAlDgzBIbnvBAAsIbCFK0//RtlCAAAKflOBDC4nQgAwBoKU6cMAQAgJcZkwbD2q+3BBzkAcD+VCCCqHz/9G2UIAAAA96UIAYB7Wm0Pe2spRPXZGGVlCAAAKSlEAIMy6xwAHkYZAgPdHypDAABI9mIXiK4SAQA8iAcLYKD7Q2UIAAAA9+VpVgCwlsJkNWX+31FZyhAAAJK7yAUGUXezzgGAe2rXUmUIxHX58RvKEAAAkrvIBQbhwxsA6EclAohPGQIAAMB9/CkCAOiFc0MgHjtDAAAAeJBKBADQC7stIR5nhgAAkBxjsmBYPrgBgH7UIoBovvv4DWUIAACpcIA6DGfv8HQA6IdD1CEqY7IAAAC4Nx/aAEC/KhFAXMoQAAAAzqUMAQBrK8xB8fEbyhAAAFLxowhgMH+LAACsrTADxcdvKEMAAEiFM0NgOJ5eBQBrK8yKMgQAAIBz+cAGAHq02h4qKUAcTZkX4V0ZAgAAwDn2q+1hLwYA6F0tAoiiCH9RhgAAAHAOu0IAII5aBBCPMgQAgFRcigAGUYsAAKLwwAHE8eF8SWUIAABJXeAC0f0tAgCwxsKMfHhwThkCAADAOTy1CgDWWJgdZQgAAADncHg6AMRRiwDiUYYAAABwDk+tAkAEq+2hlgJE8WP4izIEAACAk622BztDACAeDx1A/xygDgAAwFl8QAMAcXnoACJRhgAAAHAqH9AAQFzvRABxKEMAAJi9pswvpQCDsDMEAIC5+XC/qAwBACAFFyKAQfxHBAAQVSUCiHO/qAwBAADgVLUIAACYI2UIAAAAp6pFAABRGUkJkShDAAAAAAAmYLU97KUAcShDAAAAOMlqe6ikAADR1SKAfjVlvlaGAAAAAABMRy0C6J8yBAAAAAAASJoyBAAAgFNUIgAAYK6UIQAAAAAAQNKUIQAAAAAA01GLAHp3oQwBAADgFO9EAACD+FsE0LtLZQgAAAAAAJA0ZQgAAAAAAJA0ZQgAAAAAAJA0ZQgAAACnqEQAAMBcKUMAAAAAAICkKUMAAAAAAKZjJwLonzIEAAAAAGA69iKA/ilDAAAAAACAlH2vDAEAAOBOq+2hkgIAADNVKEMAAAAAAICkKUMAAAAAAICkKUMAAAAAAICkKUMAAAAAACbCOV0QhzIEAAAAAABImjIEAAAAAABImjIEAAAAAABImjIEAAAAAABImjIEAAAAAABImjIEAAAAAGBa9iKAfilDAABIQS0CAAASshMB9EsZAgDA7K22h1oKAAAAfI0yBAAAAAAASJoyBAAAAAAASJoyBAAAAABgWi5EAP1ShgAAAAAATMulCKBfyhAAAAAAACBpyhAAAAAAACBpyhAAAAAAACBpyhAAAFKxEwEAAAC3UYYAAJCKvQgAAAC4jTIEAAAAAGAimjK/kAL0bq8MAQAAAACYjksRQO/+VIYAAAAAAABJU4YAAAAAAABJU4YAAJCKdyIAACABzgyBCJQhAAAAAADT4cwQiEAZAgAAAAAAJE0ZAgAAAAAAJE0ZAgBAKnYiAAAgAY9EAP1ThgAAkIq9CAAAALhFpQwBAAAAAJiOQgTQP2UIAAAAd2rKvJACAAzCmgsRKEMAAEiFM0MgrkIEAADMlTIEAIAkrLYHZ4YAADBrTZmvpQBxKEMAAAAAAICU1coQAABSYncIxFOIAACiW4sA+rfaHpQhAAAkxbkhEE8hAgAA5koZAgAAAAAwDY9EAHEoQwAASIkxWRDPdyIAgOguRABx7hOVIQAApORPEUA0lyIAAOstzNCHccrKEAAAAACAkTVlXkgB4lGGAACQEmOyIB5PqgJAXIUIIB5lCAAAKdmJAKIxwxwA4vLgAUS8T1SGAAAAcBLjOwAgqu9FAFH8J/xFGQIAQErsDIG4ChEAQDR2hkBEyhAAAJKx2h6cGQJxFSIAgGiUIRDHh/tEZQgAAACnKkQAAP1ryjyczeV8LojDmSEAACSpEgFE86MIACAKu0IgMmUIAAAAp/LEKgDEsRYBRFOHvyhDAABIjUPUIZ61CAAgCrsvIZLV9lCHd2UIAACp+Y8IIJ5upjkA0C9jsiAyZQgAAKmpRQBR+bAGAHrUPWhQSAKi+O/kAGUIAACpqUUAUSlDAMDaCnOx//gNZQgAAMle7AJRfC8CAOjVWgQQnzIEAICkrLYHB6hDXJ5eBYB+OTwd4nn38RvKEAAAUmR3CMSzFgEAWFthbpQhAACkyO4QiKgp80IKANDLmhp2XF5IAuLfGypDAABIkZ0hEJdRWQBgTYVZ3RsqQwAASNGfIoCofHADAP14JAKIqv74DWUIAAApsjME4vLBDQD0Yy0CiGe1PdQfv60MAQAgRc4MgbjsDAGAB+rO4CokAdF89pCcMgQAgOQveoHeXXQHvgIA97cWAUT12UNyyhAAAJKz2h7sDIH4lCEA8DDGTkJcdoYAALAItQggKh/gAMDDrEUAUf356d8oQwAASFUtAohqLQIAuJ9u3GQhCYjKzhAAABbBqCyIq2jK/EIMAHAvaxHAsPeEyhAAAFL1HxFAdGsRAMC9/EsEEJ2dIQAALEIlAojOuSEAcKZuZ+VaEhDXanuwMwQAgEXYiwCieywCADjbWgQw/P2gMgQAgCR9+RQQEEU4N6QQAwCcxYgsiO8f94PKEAAAFnUBDPRuLQIAOIudlRBf/eV3KEMAAEiZUVkQn3NDAOBETZlftm8XkoDo/v7yO5QhAACk7J0IIDpPtwLA6f4tAhiEMVkAACxKLQKI7qJ7yhUAuJuHCGCke0FlCAAAi7oABqLwlCsA3KF7eKCQBMS32h7sDAEAYFEXwJUUYBBrEQDAnTw8AMOob/tOZQgAAIu8EAZ6ddmUeSEGAPgmI7JgxHtAZQgAAIu8EAZ65wMeAPgKI7JgUO9u+05lCAAAi7wQBnpn9AcAWCdhCurbvlMZAgDAIi+Egd6FUVkXYgCAW9lBCSPfAypDAABI3U4EMBgf9ADAF5oyD+tjIQkY9x5QGQIAQNJW24MyBIbzLxEAgPURRrRv7wH3t/2AMgQAgCVQiMAwHjdlXogBAI66EZJ2TsIE7v2UIQAALPqCGOidD3wA4PN10ZlaMJx3X/sBZQgAAEvwtwhgMP8WAQD8128igEHVX/sBZQgAAEtQiQAGc2lUFgB8GJEV1sNLScCgjMkCAMAFMTAYT8ECgPUQBrfaHpQhAAAs+oJ4n31juzTQO+eGAECWbUQAg/rmQ3DKEAAAXBgDfSuaMl+LAYClatfBTebgdJjUPZ8yBACApfhTBDAoB6kDYB0EhvT3t35QGQIAwFJUIoBBbZoy90QsAIvTrn/h0PS1JGBa93zKEAAAlsKYLBjeRgQALJCD02GC93zKEAAAFsEh6jAKHwYBsCjdrsiNJGBwdXfP91XKEAAAlsTuEBiWg9QBWJonIoBp3uspQwAAWBKHqMPwHCALgHUPGP1eTxkCAMCSVCKAwYWD1AsxAJC6dr3btG/WPJjovZ4yBACAJTEmC8axEQEAC/BMBDDdez1lCAAAi9EdqKcQgeE5SB2ApHVnZBWSgFHs7jo8PVCGAACwuAtlEcDgLrrRIQCQKrtCYOL3eMoQAACW5p0IYBQ+JAIgSd2ukLUkYDR/nvKTlCEAACyNnSEwjqIp88diACBBCn8YV3XKT1KGAACwKKvtIZQhe0nAKJwdAkBSmjK/zOwKgSnc491JGQIAwBLZHQLjWHejRAAgFYp+GFd16k9UhgAAsETODYHxGCUCQBKaMi/at40kYB73dsoQAACWqBIBjGbdjRQBgLlT8MOM7u2UIQAALM5qe6ikAKMyUgSAWeuK/Y0kYHQnj0BWhgAA4KIZGNqmGy0CAHP1QgQw/j3danvYn/qTlSEAACxVJQIYldEiAMxSU+br9m0tCZjXPZ0yBACApXKIOozL7hAA5kqhDzO8p1OGAACwVJUIYHRGjAAwK3aFwKScNfpYGQIAwCJ1s2WdGwLjetx9qAQAc6HIh2mo23u6+px/QBkCAMCSVSKA0Rk1AsAsNGW+ad8uJQHzvJdThgAAsGTODYHxre0OAWDq2rXqIlPgw6zv5ZQhAAAsWSUCmAQfLgEwdU/aVyEGmO+9nDIEAIDFcm4ITMa6Gz0CAJPT7Qr5TRIwGbtzzwsJlCEAACxdJQKYBLtDAJiqcGj6hRhg3vdwyhAAAJbOuSEwDUVT5s/FAMCUdOdabSQB87+HU4YAALBoq+3hRgowGb91o0gAYCrsXITpqe7zDylDAADAqCyYilCEvBADAFPQnWe1lgRMyq47+/FsyhAAADAqC6Zk05T5pRgAGFO3U1FBD9Pzx33/QWUIAABkmVFZMC0+fAJgbGE8ltGNMD3Vff/BlewAAODD03//54YXJuXX1fZwLQYARrguDDsU30sCJmffXh/+v/v+w3aGAADAUSUCmJQXDlMHYCRXIoD07tmUIQAAcPSHCGBSQhHyTAwADKkp8yftm7OrIMF7NmUIAAAcVSKAyXniMHUAhtKuOUWmiIdk79mUIQAA0FptD3X7tpMETI5RJQAM5UXmDDmYql13z3ZvyhAAAPifSgQwOZfdyBIAiKZdax63b48lAeneqylDAADgf5wbAtP0rBtdAgC9a9eYsBvETkRI/F5NGQIAAJ3V9lC1b3tJwOT4kAqAmK4y47FgyvbdvdqDKEMAAOBzNyKASVp3I0wAoDfGY8Fy7tGUIQAA8Ll3IoDJuupGmQDAgxmPBcu6R1OGAADA5+wMgenyoRUAfTIeCxZ0j6YMAQCAT6y2h3BmyE4SMFmPjcsC4KGMx4LZuOnu0R5MGQIAAP/0WgQwacZlAXBv7RpSZHYawlz0NsZYGQIAAP9kVBZMWyhC3ogBgHsyHgsWeG+mDAEAgC+stoe6faslAZO2bsr8iRgAOEe3dqwlAbOw6+7NeqEMAQCA29kdAtP3rCnzSzEAcIpuzXghCZiNXscXK0MAAGCAC28gijDixMx3AO7UnTVlzYB56fUBNWUIAADcYrU97DKjsmAOLo3LAuAEYUeI3YQwH3WfI7ICZQgAAHxdJQKYhTAuqxADALdp14jH7dtGEjArvY8tVoYAAMDX/SECmAWjTwC4VVeWWyNgfnofW6wMAQCAr1htD+FppL0kYBbWxmUBcIs32bE0B+aj7sYW90oZAgAA33YjApiNMC7LPHgAPmjXBOeEgHuw/1KGAADAtxmVBfNhXBYAHzRlvmnf7BiEeXod41+6kisAANx5M/1/mfEKMCe/r7aH52IAWOy1W9gN8tb1G8xSGJH1Q4x/sZ0hAABwN6OyYF6MywJYqPbr/8ddgooQmKdXsf7FyhAAALibUVkwP2+6D8QAWJZQhCjEYb6iPYimDAEAgDustodwQb6XBMxK0b5eiAFgOZoyD2eEPJYEzNauvfeqY/3LlSEAAHAao7JgfjbdAboAJK79er/OlOAwd69j/suVIQAAcBqjsmCeXjRlXogBIF3dOVFvJAGzF/UBNGUIAACcwKgsmK1wbogPyAAS5cB0SMZNzBFZgTIEAABOdy0CmKXLpsyNTgFIkwPTIQ3Rd+IrQwAA4HSvRQCz9cT5IQBp6YpuB6bD/IUd+NHPaFSGAADAiVbbw659qyUBs/WimysPwMx1BfcTSUASwois6COJlSEAAHAeu0Ngvj7Mle/mywMwU12xfSUJcI91DmUIAACc51oEMGvhAzTnhwDMVFeEvJUEJKNebQ/VEL+QMgQAAM7QXqjX7dtOEjBrm6bMjVYBmJluZ1/YEWKHH6RjsJ33yhAAADjfKxHA7IXzQ9ZiAJiVsCPE2U+QluuhfiFlCAAAnO9GBJCEN02ZF2IAmL7263XYEaIIgbRU3c77QShDAADgTO0F+z5TiEAKwpiVNw5UB5i2rgjZSAKS83rIX0wZAgAAM7hwB6IJTxlfiQFgmpoy32SKEEjRfrU9XA/5CypDAADgHtoL97AzZC8JSMLjpsxfiAFgWroiRGENaRp8p70yBAAA7u9aBJCMJ92HbgBMQDfC8DdJQLJeDf0LKkMAAOD+jMqCtFw1Ze5wXgCAuHar7WE39C+qDAEAgHvqLuB3koCkvFWIAIyr2xXyNjue6wSk59UYv6gyBAAAHsbuEEhL+ADuTfdBHADjCOc4KUIgTeHcxZsxfmFlCAAAPMy1CCA5RXbcIaIQARhY+7U3HJi+kQQk62a1PezH+IWVIQAA8ADdhfy1JCA54YnkKzEADEcRAovw+1i/sDIEAAAezqgsSNPj7oM5ACJrv94+zxQhkLpqtT3UY/3iyhAAAHig9oK+at9qSUCSNgoRgLjar7Ob9u2ZJCB5oz5EpgwBAIB+vBIBJGvTfVAHQM+6r69KZ0hfvdoersf8DShDAACgH9cigKRdKUQA+qUIgUUZfbSwMgQAAHrgIHVYBIUIQE8UIbA4L8f+DShDAACgPw5Sh/QpRAAeSBECi3PdPTw2KmUIAAD0pDtIfScJSN6LpswvxQBwvvbr5+NMEQJLM4mHxpQhAADQLwepQ/ou2tdbhQjAebqvm4oQWJaqe2hsdMoQAADo10372osBkqcQAThD9/Xybff1E1iOyYwSVoYAAECPHKQOi6IQATiBIgQWq27vjyZzb6QMAQCA/hmVBcuhEAH4BkUIuC+aCmUIAAD0bLU91NlxXBawDAoRgFt0h6UrQmCZJrdjXhkCAABx2B0Cy/KxEFmLAuBDEbJp395kihBYqutuhPBkKEMAACCC9sK/at9qScCifCxENqIAlqz7OnglCVi0yT0cpgwBAIB4fhcBLNKVQgRYKkUIkB13hdRT+00pQwAAIJL2BuA6O87KBZZHIQIsjiIE6ExyZLAyBAAAFngjAAwiFCLPxQAsgSIE6FSr7WE3xd+YMgQAAOJ6KQJYtGdNmftwEEha+3XuRaYIAY4mOypYGQIAABGttocwJutaErBoG4UIkKru69sTSQDZcVdINdXfnDIEAADic5A6EAqR9+3rQhRAKroiZCMJoPN6yr+5lf8+AAAQnw8LgE6Yof3LanuoRQHM+LomFLtv2tdaGkCnbq9vfpjyb9DOEAAAGMZrEQCty/YVdohcigKYo64IeZspQoDPTX43vDIEAAAG0M3OrSQBtD58kNiU+WNRAHPSFbmhCFHoAp8Ku0Kup/6bVIYAAMBwnB0CfPRhxExT5g4dBmZBEQLM/T7HmSEAADCgcIBy5kME4HPXq+3hVzEAE75+CTvZwvlnF9IAvjD5s0I+sjMEAACG9UoEwBc2oSjt5vADTEr7tWmTHQ9L9zUKuM1sdr/bGQIAAANryvyv9q2QBPCFun39stoedqIAJnLNEnaDbCQBfO3aZS67QgI7QwAAYHjODgFuU2THg9U3ogDGFHaqta+wG8TXIyCZ+xo7QwAAYAR2hwB3eLnaHp6KARjhGiWMw3JQOnCXWe0KCewMAQCAcdgdAnzLE+eIAENrv+aEAiQ8sKEIAZK7n7EzBAAARmJ3CHCCfXY8R6QSBRD5umTTvl1JAjjB7HaFBHaGAADAeOwOAe7yYVxNU+bPRQHE0n6NeZEpQoDE72PsDAEAgBHZHQKcocqOu0T2ogB6ug4JhWs4KH0tDeBEs9wVEtgZAgAA47I7BDjVun391ZT5WhTAQ3Xng7zPFCHAQu5f7AwBAICR2R0C3MPvq+3huRiAe157bNq3MBrrQhrAGWa7KySwMwQAAMZndwhwrmdNmb9vX4UogHN8cj6IIgRY1H2LnSEAADABdocA9xTOD3m62h6uRQHcca0Ryo+37etSGsA97NrrjZ/m/AewMwQAAKbB7hDgPsKHm1dNmb/pPugE+IfurKHw4IUiBLivp3P/AyhDAABgArqnuitJAPf0ODserv5YFMCn2q8Lz7PjjhCFKXBfVXu/Mvt7FWOyAABgIrqnNt9KAnig6+w4OmsvClj0dUUoP960r7U0gAf6OYUyxM4QAACYiO4Go5IE8ECb9vXeLhFYru7//zAWay0N4IFuUihCAmUIAABMi7NDgD4U7euNs0Rgedr/519kxx0h/t8H+vA0lT+IMVkAADAx4cPL7Dj/H6APYVzWr6vt4UYUkPT1Qzgc/SpzSDrQn+v2+uHXVP4wdoYAAMD0PBUB0KMP5wY0Zf62fRXigPS0/28/yY7njilCgL7sU7svUYYAAMDErLaHOjsegAzQp3V2PEvkuSggDaHgDEVn+80wGstYLKBPr9r7kn1S91n+mwIAwPR0M/7Dwac+2ABi2LWvp6kciAoLvVYIIzWvXCsAEdTt6ydlCAAAMIju6e1nkgAius6OpcheFDCb64NQfoQSxPliQCzhrLHr1P5QxmQBAMB0vcyOT2UBxLJpX38ZnQXz0O0GCTtHFSFALFWKRUhgZwgAAExYU+ab7Pj0J0BsdXZ8ErQSBUzueqDIjueCKEGA2H5O9VpAGQIAABPXlPn79u1SEsBAquw4OmsnCpjEdcCT7Dg209kgQGw37fr/S6p/OGUIAABMXFPm6/btrSSAgV23r99X20MtChhl/Q8PQoTdIGtpAAP5IeV1XxkCAAAz0JT5m8xoDGB44WD1V+3rpUPWYbA1P+wA+bgbBGAo4QGI5yn/AR2gDgAA8/BUBMAIwoey4QNZh6zDALoD0t9nihBgWHX7epn6H9LOEAAAmInug0gfjgBjqrPjk6PXooBe1/iifbvKjMQCxvHrEtZ2ZQgAAMxENzYjPC1aSAMYWZ0pRaCvtd1ILGBMVbue/7yEP6gxWQAAMBPdvP7fJQFMQNG+rpoyD+OzNuKA83X/7xiJBYxtMeN47QwBAICZacr8bWaMBjAtu+y4U+RGFHDnOh7W8GfWcmACXrZrtzIEAACYpqbML7Pjk6QAU1NnxmfB19bvon170b4eSwOYgLDr/Idu9/kiKEMAAGCGmjIPH6Y8kQQwUXWmFIGPa3aRHXeCbKQBTMivS1unlSEAADBD3YGrf7WvC2kAE1ZnShGWvVaHBxd+s14DE7OYQ9M/pQwBAICZ6g5evZIEMANhBMer7DibfC8OEl+flSDA1P3Urse7pf2hlSEAADBjDlMHZiYUIeGQ9bBbpBYHia3JShBgDhZ1aPqnlCEAADBj3RzyvyQBzFAoRV6ttodKFMx8LVaCAHNRZ8ddIYvcpakMAQCAmWvK/Hl2PJgVYI7CmI4wQuvGCC1mtv4W2fFQdCUIMBe/tGvtzVL/8MoQAACYue6J1Pftq5AGMGOhCLnOjrtFanEw4XU3rLfhIYSNNIAZWeSh6Z9ShgAAQAKaMl+3b28lASSial+vV9vDtSiY2FobSpC1NICZCQ8c/LT0hw2UIQAAkIimzN+0b48lASTEbhHGXlsvurU1lCCFRICZ+r1dR58vPQRlCAAAJKL7wCYcpm5uOZAiZ4sw5JpaZMezQDbWVWDu62e7bv4kBmUIAAAkpSnzTft2JQkgcdft648lHwJL1HX035lRWEA6fm7Xy0oMyhAAAEhOU+bh7JC1JIAFCDtEQiESxmjtxME9183L7FiAbDK7QIC0vGzXx6diOFKGAABAYrrRHu8zH+gAy1Jnx2LktWKEE9fKcBZIKEEuJQIkKDww8IPRkv+jDAEAgAQ1Zf6kfXshCWCh6uxYjLwzSotP1saPh6H/q3sHSNkv1sDPKUMAACBRTZmH3SGedgWW7uMorXeZw9eXuBYqQIAlCuvdL2L4nDIEAAAS1c1Afy8JgM9U7euP8G6cVrLrX5Edi49HmQIEWB7jsb5CGQIAAAlryvx5+/ZMEgC3+nTXSChHapHMdr1bZ8fdH+HdrkhgyZ6269lLMfyTMgQAABJnXBbAyersuHNEOTL9ta3I/rf7Y92+LqQC8GHt+lkMt1OGAABA4ozLAri3OjuWI39mxmpNYS0Lr4/lRyEVgM+E3Y4/KfK/ThkCAAALYFwWQG+q9hVKkVCQ7BQkUdassMsjFB/r9vVjZucHwCmMx7qDMgQAABbCuCyAaKrsWJD83b3vHFx78tr0ZfERvl1IBuC8dch4rLspQwAAYCG6+eqhEPF0LUB8oQwJxUidHUuSKnznanuoFroGXXbrz7p9fZcdS49LaxJAL+uN8Vgn+P8CtHc/yW0cacKHE46JwPLjDQyfwPQJDJ2gpRM0eQJLKyxlLbESdQLBJ2j2CQyfwPQJGn2C4SyxwlepKloURYoooApVmfk8ETWl8Mxi4pXw94fMFEMAAKAgu8X0dXV7bxIAg1s39z+a+6a5kgsm91Z3hPA5cHwf6hUedxcA/bA91p7EEAAAKMxuMf091L/MBWD84uqS+1tuxT//NcD/H3dx484siBwAQ7M9Vgv/YwQAAFCcy2C7LIBUPHbW00tjASjebfO+nj19ZwQAAFCWZj9hH5wAACBdb5wT0vJzkBEAAECZdovpv4JfFwMAQGquJ8vtK2Nox8oQAAAoV1wdsjEGAABIhu2xDiSGAABAoSbLrQ9SAACQlsvmfTwtiSEAAFCw6oPUurq9MwkAABi9q+r9+7UxHPjZxwgAAIDdYvpndTs3CQAAGKVNdf1kVcjhrAwBAACieACjD1YAADDS9+tCyHHEEAAAIG6Xtalub0wCAABG5131fv3GGI78zGMEAADAnd1i+rG6XZgEAACMwnqy3L4whuNZGQIAANwXV4f41RkAAAwvbot1aQzdEEMAAIC/NfsQXwbnhwAAwNAum+1s6YAYAgAAfKHZj/idSQAAwGCuqvfl18bQ4eccIwAAAB7j/BAAABjEzWS5/ckYumVlCAAA8BTnhwAAwGk5J6QnYggAAPAo54cAAMDJvWm2raVjYggAAPCk5oPYG5MAAIDerar33ytj6IcYAgAAfFPzgcyHMgAA6I8fIfVMDAEAAPbh/BAAAOjHp+1pm21q6YkYAgAAPKv5YPYqOD8EAAC65pyQExBDAACAvVQf0DahPlAdAADoxpVzQk70ecYIAACANnaL6a/V7a1JAADAUW4my+1PxnAaVoYAAACtVB/Yfq1u1yYBAAAHu9uGlhMRQwAAgEPE7bI2xgAAAAd51WxDy4mIIQAAQGsOVAcAgIO9q95Pr43hxJ9hjAAAADjUbjG9qG4fTQIAAPZyPVlubY81ACtDAACAg1Uf5FbV7Z1JAADAs25Cvd0sAxBDAACAg+0W07Pq9g+TAACAb4rby142280yADEEAAA4SBNCfq+uc9MAAIBviiHkxhiGI4YAAACtCSEAALC3eGD6tTEMywHqAABAK0IIAADsbTVZbp0TMgJWhgAAAHsTQgAAYG9xW6w3xjAOVoYAAAB7EUIAAGBv8aD0nybL7cYoxkEMAQAAniWEAABAKz85MH1cbJMFAAB8kxACAACtXAoh4yOGAAAATxJCAACglavJcrsyhvGxTRYAAPAoIQQAAFq5niy3r4xhnKwMAQAAviKEAABAK3FbrEtjGC8rQwAAgC8IIQAA0Mptdf0wWW5vjWK8rAwBAAD+JoQAAEArMYC8EELGTwwBAAA+EUIAAKC1y8lye2MM4yeGAAAAQggAALQXQ8i1MaRBDAEAgMIJIQAA0NrVZLldGUM6HKAOAAAFE0IAAKC11WS5vTSGtIghAABQKCEEAABau5kstz8ZQ3pskwUAAAUSQgAAoLV4UPoLY0iTlSEAAFAYIQQAAFq7ra4fJsvtrVGkycoQAAAojxACAAD7iwHkhRCSNjEEAAAKsltMPwYhBAAA9nUXQm6MIm1iCAAAFKIJIRcmAQAAe7sUQvIghgAAQAGEEAAAaC2GkGtjyIMD1AEAIHNCCAAAtBZDyMoY8mFlCAAAZEwIAQCA1t4JIfmxMgQAADIlhAAAQGuryXJ7aQz5EUMAACBDQggAALQmhGRMDAEAgMwIIQAA0JoQkjkxBAAAMiKEAABAa0JIARygDgAAmRBCAACgtZvqemMM+bMyBAAAMiCEAABAazGEvJgst7dGkT8xBAAAEieEAABAa0JIYcQQAABImBACAACtCSEFEkMAACBRQggAALQmhBRKDAEAgAQJIQAA0JoQUjAxBAAAEiOEAABAa0JI4cQQAABIiBACAACtCSGIIQAAkAohBAAAWhNC+EQMAQCABAghAADQmhDC38QQAAAYOSEEAABaE0L4ghgCAAAjJoQAAEBrQghfEUMAAGCkhBAAAGhNCOFR3xkBAACMjxACAACtrYIQwhOsDAEAgJERQgAAoLXVZLm9NAaeIoYAAMCICCEAANCaEMKzxBAAABgJIQQAAFoTQtiLM0MAAGAEhBAAAGjtnRDCvqwMAQCAgQkhAADQ2uVkuV0ZA/sSQwAAYEBCCAAAtCaE0JoYAgAAAxFCAACgldtQh5Bro6AtMQQAAAYghAAAQCsxhLyYLLc3RsEhHKAOAAAnJoQAAEArmyCEcCQrQwAA4ISEEAAAaCUGkBhCbo2CY4ghAABwIkIIAAC0IoTQGTEEAABOQAgBAIBWVpPl9tIY6IozQwAAoGdCCAAAtHIlhNA1K0MAAKBHQggAALRyOVluV8ZA18QQAADoiRACAAB7i+eCxBBybRT0QQwBAIAeCCEAALC3GELiQek3RkFfxBAAAOiYEAIAAHuLASSGkFujoE8OUAcAgA4JIQAAsLdVEEI4EStDAACgI0IIAADs7Wqy3L4xBk5FDAEAgA4IIQAAsLd4UPrKGDglMQQAAI4khAAAwF4clM5gxBAAADiCEAIAAHtxUDqDcoA6AAAcSAgBAIC9rIIQwsCsDAEAgAMIIQAAsJc3k+X2yhgYmhgCAAAtCSEAAPCsuAokHpR+bRSMgRgCAAAtCCEAAPCseD7IpYPSGRMxBAAA9iSEAADAs+JKkEvngzA2YggAAOxBCAEAgGc5H4TREkMAAOAZQggAAHxTXAXyarLcro2CsRJDAADgG4QQAAD4pnguyAvbYjF2YggAADxBCAEAgG+6miy3b4yBFIghAADwCCEEAACeFFeBxEPSr42CVIghAADwgBACAABPittixRByYxSk5DsjAACAz4QQAAB40irU54MIISTHyhAAAGgIIQAA8CjbYpE8MQQAAIIQAgAAT4irQF5NltuNUZAyMQQAgOIJIQAA8KiryXL7xhjIgRgCAEDRhBAAAPiKbbHIjhgCAECxhBAAAPjKOtTbYt0aBTkRQwAAKJIQAgAAX3kzWW6vjIEcfWcEAACURgghYfEXmm+aOwBAV+Ih6T8JIeRMDAEAoChCCAmLAeRF8yXFD6HewgIA4FhXzXuMG6MgZ7bJAgCgGEIICbsLITcP/k2/rm5vq+vMiACAA95fxLNB1kZBCcQQAACKIISQsEdDyL1/27PqFv99z40KANjTdXVdOiSdkoghAABkTwghYd8MIQ/+nVslAgDs894iRpBro6A0YggAAFkTQkjY3iHk3r/3WbBKBAB43DrU22JZDUKRxBAAALIlhJCw1iHkwb99q0QAgPvvK95V7yuujIKSiSEAAGRJCCFhR4WQe4+BWXV7X10vjRQAirUO9bZYG6OgdGIIAADZEUJIWCch5MHjIcaQ+JiwSgQAynpPYTUI3COGAACQFSGEhHUeQu49LmIIee+xAQBFWAerQeArYggAANkQQkhYbyHkwWNkHupVIjMjB4As30/ECHJtFPA1MQQAgCwIISTsJCHkwePl11AfsA4A5CEGkBhCbo0CHieGAACQPCGEhJ08hNx73MxCvUpk7q8BAJK1CXUEWRsFfJsYAgBA0oQQEjZYCHnwGHLAOgCkKR6O/s5qENiPGAIAQLKEEBI2ihBy77EUQ0jcNuu1vxoAGL34/uFyLO8jIBViCAAASRJCSNioQsiDx9V5dXsfbJ0FAGN9DxFXglwZBbQnhgAAkBwhhISNNoQ8eIzFrbNiFJn5KwOAUYgHpL+p3kNsjAIOI4YAAJAUIYSEJRFC7j3W4tZZcdust/7qAGAwm+CAdOiEGAIAQDKEEBKWVAh58LibhXqVyEt/jQBw0vcOH6r3Dr8aBXRDDAEAIAlCCAlLNoQ8eAzOQx1Fzv2VAkCvbIkFPRBDAAAYPSGEhGURQh48HuNjMUaRM3+9ANCpTbAlFvRGDAEAYNSEEBKWXQi597i8O0/klyCKAEAX7xlsiQU9E0MAABgtIYSEZRtCHjxGZ6E+YN3jFAAOswr1lli3RgH9EkMAABglIYSEFRFCHjxe4zkiceusub9+ANjLOtQR5MYo4DTEEAAARkcIIWHFhZAHj915qFeKzP1TAIBHbUIdQa6NAk5LDAEAYFSEEBJWdAh58DiOj+EYRWb+WQDA3+8TnAsCAxJDAAAYDSGEhAkhjz+m4+NZFAGgdFfV9c65IDAsMQQAgFEQQkiYEPLtx/ZZdXtdXb9U15mJAFCQVagjyMYoYHhiCAAAgxNCSJgQsv/jXBQBoBTrUEeQtVHAeIghAAAMSgghYULIYY95UQSAXMX3BG9EEBgnMQQAgMEIISRMCDn+8S+KAJCLTahXgqyMAsZLDAEAYBBCCAkTQrp9LhBFAEj5PcEbEQTSIIYAAHByQggJE0L6e14QRQBI6f3Ah+q6qt4T3BoHpEEMAQDgpIQQEiaEnOY5QhQBYMzvBUQQSJQYAgDAyQghJEwIOf3zhSgCwJjeB4ggkDgxBACAkxBCSJgQMuxzRwwhL6vrbXXNTASAE78HEEEgE2IIAAC9E0JImBAyrueS+DwiigBwitd/EQQyI4YAANArIYSECSHjfV6JK0Xi9llz0wCg49d+EQQyJYYAANAbIYSECSFpPMfMQx1FXpoGAEe+7osgkDkxBACAXgghJEwISe/5Zhbq7bM85wDQ9jVfBIFCiCEAAHROCCFhQkjazz3xsPXXoV4tcmYiADxhE+oIshJBoBxiCAAAnRJCSJgQktdzUXwectg6APdtqutd9Vq/MgoojxgCAEBnhBASJoTk+7w0D84VASjduro+VK/z10YB5RJDAADoxG4xjVvTvDcJEiSElPEcNQt1FLkIttACKEWMHzGCrI0CEEMAADhasx3NR5MgQUJIec9XMYTE56wYRmYmApDla3uMIHE7rI1xAHfEEAAAjiKEkDAhxPNX3DorRpG5aQAkb1Ndv1XXlUPRgceIIQAAHEwIIWFCCPefy2bBFloAqVpX128ORQeeI4YAAHAQIYSECSE89bwWQ8jdapFzEwEYtVWoI8jaKIB9iCEAALQmhJAwIYR9n+fm1e2foV4tAsA4bEK9FdbKeSBAW2IIAACtCCEkTAjhkOc8B64DDG8dbIUFHEkMAQBgb0IICRNC6OI5cB6sFgE45Wv3qro+WAUCdEEMAQBgL0IICRNC6Pr50NkiAP2Jr9cfrAIBuiaGAADwLCGEhAkh9P38GGPI3WqRMxMBOPj1ehWsAgF6JIYAAPBNQggJE0I49fNlXC0Sw8hL0wDYyzo4CwQ4ETEEAIAnCSEkTAhhyOfOu0PXYxixjRbAlzbV9Vt1rawCAU5JDAEA4FFCCAkTQhjTc+ks1GeLxNUiMxMBCn5tvg71KpC1cQBDEEMAAPiKEELChBDG/NzqfBGgNDGA/Dveq9fmW+MAhiSGAADwBSGEhAkhpPRcG1eK/CPUK0aEESAn8XU4boN1bRssYEzEEAAA/iaEkDAhhJSfe4URIHWb4BwQYOTEEAAAPhFCSJgQQk7PxcIIkIpN+HwOiNdgYPTEEAAAhBBSJoSQ83OzMAKMzSYIIECixBAAgMIJISRMCKGk5+p5+BxGZiYCnNAmCCBABsQQAICCCSEkTAih5Ofu81BHkRhHzk0E6MHdIehrr7VALsQQAIBCCSEkTAiBz8/ls+o2D59XjQAcKq7++CPeHYIO5EgMAQAokBBCwoQQ+PbzewwiPwfbaQH7vabGAPLvUK8AuTUSIGdiCABAYYQQEiaEQLvn+1moo8hdHAGIr6Hr4PwPoEBiCABAQYQQEiaEwPGvAfNQb6cV784agXJeP++2v1rb/goomRgCAFAIIYSECSHQ/WvCWfi8amQebKkFOVmHz2d/eO0EaIghAAAFEEJImBACp3mdmIU6iogjkJ67ra/+qF4vr40D4HFiCABA5oQQEiaEwHCvHbMgjsBY/R0/goPPAfYmhgAAZEwIIWFCCIzr9WQW6ijyY3DmCJya+AHQATEEACBTQggJE0Jg/K8x8cyRGETmoV49Ev98ZjLQiXX4HD7WxgHQDTEEACBDQggJE0Ig3deeGETidRdHrB6B590011+hjh9e/wB6IoYAAGRGCCFhQgjk95o0D3UU+TEIJLAJ98JH/LMtrwBORwwBAMiIEELChBAo57VqHgQS8rcJwgfAqIghAACZEEJImBACXsPuosgsOIOE9NxtdfXfIHwAjJYYAgCQASGEhAkhwFOvbXeHtMfr+3t/FkkYSnyt2oR6tcenP3v9AkiHGAIAkDghhIQJIcAhr3t3kWQWPq8kuftv0IV18xolegBkRAwBAEiYEELChBCgj9fFWagDyd0Kkp+b/9XcdHhgHT4Hj01z2d4KIGNiCABAooQQEiaEAEO8bt6tHrm/ikQsyfd15u415o/mvo7/o3rtWRsPQJnEEAAgOfd+9Xmo5H/1J4SQMCEEGPPr610suR9MfnzkvzGcm+a15G5Vxxf/zesLAE8RQwCAUXjm15p9fvlw/5eDm+r6773/NsoP1EIICRNCgFzet8zC5x9mPHyf8vO9P9//v+Nrm+a6E18f/u+R/108s2NjXAAcQwwBAE6q+fLgvLnufmk5T+SDevyA/t/mPsjqEiGEhAkhgPdBn3/8cd+3fvTxfRh3TLm/OuOp909f/DdRA4ChiCEAQJ8f+OOH93moo8d5yG8/7vhh/qb5EmAdeg4kQggJE0IAAIBBiSEAQGeafbbnod4eIt7PChzDTXPFwzrXXf36UQghYUIIAAAwODEEADhYs/LjZSg7fjxnU13X4XMcuT1gzhdBCCFNQggAADAKYggA0MpuMb2LH/E+M5HW1tX17+q63mfViBBCwoQQAABgNMQQAOBZTQD5R6gDiNUf3YlfEq+r67fHvjAWQkiYEAIAAIyKGAIAPEoAOblNdf1WXau4YkQIIWFCCAAAMDpiCADwt+YA9H9W10UQQIYUv0Q+NwYSJIQAAACjJIYAQOF2i2mMHnH1xy/BF/DA4YQQAABgtMQQAChUswokBhDbYAHHEkIAAIBRE0MAoDDNWSAxgsxNA+iAEAIAAIyeGAIAhWgO5H5bXTPTADoihAAAAEkQQwAgY815IK9DvRLEVlhAl4QQAAAgGWIIAGRIBAF6JoQAAABJEUMAIDO7xfTXIIIA/RFCAACA5IghAJAJZ4IAJyCEAAAASRJDACBxu8V0Xt0+BhEE6JcQAgAAJEsMAYBE7RbTWagjyNw0gJ4JIQAAQNLEEABIzL3D0d+aBnACQggAAJA8MQQAErJbTF9Wt/fBlljAaQghAABAFsQQAEhAsyVWjCAvTQM4ESEEAADIxndGAADjtltM45ZYfwYhBDgdIQQAAMiKlSEAMFIOSAcGIoQAAADZsTIEAEZot5hehHo1yNw0gBMSQgAAgCxZGQIAI7JbTM9CvRrElljAqQkhAABAtsQQABiJ3WI6D3UImZkGcGJCCAAAkDXbZAHACOwW01+r2+9BCAFOTwgBAACyZ2UIAAyo2RbrX8HZIMAwhBAAAKAIYggADGS3mJ6HOoTMTAMYgBACAAAUwzZZADCA3WJ6Ud3+DEIIMAwhBAAAKIqVIQBwYrvFNB6SfmESwECEEAAAoDhiCACciPNBgBEQQgAAgCKJIQBwArvFdBbqEHJuGsBAhBAAAKBYYggA9Kw5KP336jozDWAgQggAAFA0B6gDQI92i+nLIIQAwxJCAACA4lkZAgA92S2mF9Xto0kAAxJCAAAAghgCAL0QQoAREEIAAAAatskCgI7tFtPXQQgBhiWEAAAA3GNlCAB0aLeYxghyYRLAgIQQAACAB8QQAOiIEAKMgBACAADwCDEEADoghAAjIIQAAAA8QQwBgCMJIcAICCEAAADf4AB1ADjCbjG9CEIIMCwhBAAA4BlWhgDAgZoQ8tEkgAEJIQAAAHsQQwDgAEIIMAJCCAAAwJ7EEABoabeYzqvb7yYBDEgIAQAAaEEMAYAWdovpeahDyJlpAAMRQgAAAFoSQwBgT7vFNAaQ/wQhBBiOEAIAAHCA74wAAJ7XhBArQoAhCSEAAAAHEkMAYD/xsPRzYwAGIoQAAAAcQQwBgGfsFtP31e2lSQADEUIAAACO5MwQAPiG3WJ6EepVIQBDEEIAAAA6IIYAwBN2i2ncFss5IcBQhBAAAICOiCEA8Ih7B6Y7JwQYghACAADQIWeGAMDjHJgODEUIAQAA6JgYAgAP7BbT18GB6cAwhBAAAIAe2CYLAO5pzgn50ySAAQghAAAAPbEyBAAazTkhH00CGIAQAgAA0CMxBAA+exucEwKcnhACAADQM9tkAUD4tCpkXt1+NwngxIQQAACAExBDAChesz3Wf6rrzDSAExJCAAAATsQ2WQAQwvsghACnJYQAAACckJUhABTN9ljAAIQQAACAExNDAChWsz3Wn9U1Mw3gRIQQAACAAdgmC4CSvQ1CCHA6QggAAMBArAwBoEi7xfQ81KtCAE5BCAEAABiQlSEAlOqjEQAnIoQAAAAMTAwBoDi7xfSiup2bBHACQggAAMAI2CYLgKI0h6b/p7rOTAPomRACAAAwElaGAFCa10EIAfonhAAAAIyIlSEAFGO3mM5CvSoEoE9CCAAAwMhYGQJASd4bAdAzIQQAAGCErAwBoAi7xXRe3X43CaBHQggAAMBIWRkCQCneGgHQIyEEAABgxMQQALLXrAqZmwTQEyEEAABg5MQQAEpgVQjQFyEEAAAgAWIIAFmzKgTokRACAACQCDEEgNxZFQL0QQgBAABIiBgCQLasCgF6IoQAAAAkRgwBIGdWhQBdE0IAAAASNDECAHK0W0zPq9ufJgF0SAgBAABIlJUhAOTqFyMAOiSEAAAAJMzKEACys1tMZ9XtPyYBdEQIAQAASJyVIQDk6MIIgI4IIQAAABkQQwDIkS2ygC4IIQAAAJkQQwDIym4xvahuZyYBHEkIAQAAyIgYAkBu/mkEwJGEEAAAgMw4QB2AbDg4HeiAEAIAAJAhK0MAyImzQoBjCCEAAACZEkMAyMmFEQAHEkIAAAAyJoYAkIXdYvoyODgdOIwQAgAAkDkxBIBcODgdOIQQAgAAUAAHqAOQvN1iGleE/K9JAC0JIQAAAIWwMgSAHLw0AqAlIQQAAKAgYggAOfiHEQAtCCEAAACFsU0WAEmzRRbQkhACAABQICtDAEidLbKAfQkhAAAAhRJDAEidLbKAfW2EEAAAgDKJIQCkbm4EwJ7Od4vpzBgAAADKI4YAkKzdYhq3yDozCaAFW+sBAAAUSAwBIGU/GwHgeQMAAIDniCEApGxuBEBLVoYAAAAUSAwBIEnNvv/nJgEc8PwxNwUAAICyiCEApGpuBMCB/mEEAAAAZRFDAEiVff+BQ82NAAAAoCxiCACpmhsBcKDz3WJ6ZgwAAADlEEMASE5zXsjMJIAjzI0AAACgHGIIACmaGwFwpHMjAAAAKIcYAkCKfjQC4EjOHQIAACiIGAJAivyiGzjW3AgAAADKIYYAkKK5EQDH2i2mwioAAEAhxBAAkrJbTOemAHREDAEAACiEGAJAamZGAHTE+UMAAACFEEMASI0vL4GuWBkCAABQCDEEgNT48hLoytwIAAAAyiCGAJAaMQTozG4xnZkCAABA/sQQAJKxW0zPqtuZSQAdmhkBAABA/sQQAFJiVQjQtbkRAAAA5E8MASAlYgjQte+NAAAAIH9iCAApsUUW0LWZEQAAAORPDAEgJT8bAdAxK84AAAAKIIYAAFAyK84AAAAKIIYAkJK5EQBd2y2mVocAAABkTgwBAKB0VocAAABkTgwBIAl+uQ30aGYEAAAAeRNDAEiFX24DfZkZAQAAQN7EEAAAAAAAIGtiCACpmBsB0JMfjQAAACBvYggAAKWzDR8AAEDmxBAAAAAAACBrYggAqfh/RgD0ZGYEAAAAeRNDAEjFuREAPZkZAQAAQN7EEAAAAAAAIGtiCAAAAAAAkDUxBAAAAAAAyJoYAgAAAAAAZE0MAQAAAAAAsiaGAABQvN1iem4KAAAA+RJDAAAghDMjAAAAyJcYAgAAAAAAZE0MAQAAAAAAsiaGAABACBsjAAAAyJcYAgBA8SbL7cYUAAAA8iWGAAAAAAAAWRNDAAAAAACArIkhAAAAAABA1sQQAFJxawQAAAAAHEIMASAVfxkBAAAAAIcQQwAAKN2NEQAAAORNDAEAoHS24QMAAMicGAJAKvxyGwAAAICDiCEApMIvt4G+bIwAAAAgb2IIAACl+68RAAAA5E0MASAJk+V2bQoAAAAAHEIMAQCgdM4kAgAAyJwYAkBKfGEJ9MGZRAAAAJkTQwBIiS8sgT5sjAAAACBvYggAKdkYAdC1yXLruQUAACBzYggAKfmvEQAds/0eAABAAcQQAFLiS0uga7bfAwAAKIAYAkBKNkYAdOwPIwAAAMifGAJAMibLrZUhQNesDAEAACiAGAJAajZGAHRIZAUAACiAGAJAanxxCXhOAQAAoBUxBIDU/GUEQEc2k+XWNlkAAAAFEEMASI1fcQNd2RgBAABAGcQQAFIjhgBd+cMIAAAAyiCGAJCUyXK7qW62tQG6IK4CAAAUQgwBIEW+wAQ8lwAAALA3MQSAFNnaBjjWpllpBgAAQAHEEABStDYC4EhWhQAAABREDAEgRb7EBI5lhRkAAEBBxBAAkjNZbuMB6oIIcIy1EQAAAJRDDAEgVWsjAA50O1luBVUAAICCiCEApMoWN8Ch1kYAAABQFjEEgFStjQA4kJgKAABQGDEEgCQ154asTQI4wLURAAAAlEUMASBl/zYCoKXNZLndGAMAAEBZxBAAUrY2AqAlq0IAAAAKJIYAkKzJcntT3TYmAbTgvBAAAIACiSEApG5tBMCebifLrZUhAAAABRJDAEidc0OAfQkhAAAAhRJDAEha8yvvW5MA9mCLLAAAgEKJIQDkwK+9Ac8VAAAAPEkMASAHtsoCnnM9WW6tIgMAACiUGAJA8myVBezhNyMAAAAolxgCQC5sfwM85baJpgAAABRKDAEgFx+MAHiCEAIAAFA4MQSALEyW25vqtjEJ4BG2yAIAACicGAJATnzhCTy0mSy3a2MAAAAomxgCQE5WRgA8YAs9AAAAxBAA8jFZbjfB2QDAl1ZGAAAAgBgCQG5slQXcWU2W21tjAAAAQAwBICuT5TauDNmYBBDEUQAAABpiCAA5ckYAcOPgdAAAAO6IIQDkaFVdtsaBsomiAAAA/E0MASA7zRkBDlKHct1WzwMrYwAAAOCOGAJArt4ZARTLqhAAAAC+IIYAkKXJcrsJ9XZZQFniyrArYwAAAOA+MQSAnP1mBFCcD81WeQAAAPA3MQSAbE2W23V1W5sEFGVlBAAAADwkhgCQO2eHQDlWzRZ5AAAA8AUxBICsWR0CRRE/AQAAeJQYAkAJfEEKBTzOrQoBAADgKWIIANmzOgSyFw9MvzIGAAAAniKGAFCKSyOAbH2YLLe3xgAAAMBTxBAAitBsn7MyCciOVSEAAAA8SwwBoCTx7BC/Hoe8vLEqBAAAgOeIIQAUo1kd8sEkIBub6nG9MgYAAACeI4YAUJq4nc7GGCALzgICAABgL2IIAEVpttN5ZxKQvOvq8bw2BgAAAPYhhgBQnGZbnbVJQLJi1HxjDAAAAOxLDAGgVL5IhXR9aM4AAgAAgL1MjACAUu0W01+r21uTgKTEQ9N/MAYAAADasDIEgJI5TB3S49B0AAAAWhNDAChWc5i6L1YhHVcOTQcAAOAQYggARWu+WL0yCRi9TXW9MwYAAAAOIYYAQP0F68YYYNQum9VcAAAA0JoYAkDxbJcFo2d7LAAAAI4ihgBAsF0WjNgm2B4LAACAI4khAPBZ/ML1xhhgVF7ZHgsAAIBjiSEA0Li3XZYvXmEc3lWPS4ESAACAo02MAAC+tFtMX1e39yYBg1pPltsXxgAAAEAXrAwBgAcmy208O+TaJGAwcXXWK2MAAACgK2IIADwubpdlex4YhnNCAAAA6JQYAgCPcH4IDCaeE7I2BgAAALrkzBAA+IbdYnpR3T6aBJzE9WS5tT0WAAAAnbMyBAC+YbLcrqrblUlA7+K2dJfGAAAAQB+sDAGAPewW039Vt5cmAb2I29G9mCy3zukBAACgF1aGAMB+HKgO/XklhAAAANAnMQQA9tAcqB7PMnCgOnTr0oHpAAAA9E0MAYA9TZbbTXV7EQQR6MpVcy4PAAAA9EoMAYAWmq183pgEHG1VPZ48lgAAADgJB6gDwAF2i+lFdftoEnCQm8ly+5MxAAAAcCpWhgDAAZqtffyqHdqLq6teGAMAAACnZGUIABxht5jG1SEXJgF7+RRCJsutc3cAAAA4KTEEAI4kiMBeYgD5QQgBAABgCLbJAoAjTZbby+q2Mgl4UgwgVoQAAAAwGCtDAKAjVojAo+5CyI1RAAAAMBQxBAA6JIjAF4QQAAAARkEMAYCOCSLwiRACAADAaDgzBAA65gwRCDGACCEAAACMhpUhANCT3WJ6Ud0+mgSFuQshDksHAABgNMQQAOiRIEJhhBAAAABGyTZZANCjyXK7qm6vQn1+AuQs/lsXQgAAABglK0MA4AR2i+l5dfu9us5MgwytmrNyAAAAYJTEEAA4kd1iGkNIDCLnpkFGLpsVUAAAADBatskCgBNptg96UV3XpkEG4r/nV0IIAAAAKbAyBAAGsFtMf61ub02CRMWD0uOKkBujAAAAIAViCAAMZLeYvqxuH4NzREjLOtQrQhyUDgAAQDLEEAAYUHOwegwizhEhBe8my+2vxgAAAEBqxBAAGFhzsPr76rowDUbq7nyQtVEAAACQIjEEAEZit5hehDqK2DaLMVkH22IBAACQODEEAEbEtlmMjG2xAAAAyIIYAgAjtFtMf61ub02CgWxCvRrkxigAAADIwXdGAADj0/wa/0Wov5SGU7qqrp+EEAAAAHJiZQgAjFhzuHpcIfLaNOjZprouHZIOAABAjsQQAEjAbjGdh/pwdWeJ0Ie4GuSdQ9IBAADIlRgCAAlpzhL5pbrOTIMOxK2w3lgNAgAAQO7EEABIzG4xnVW3j9U1Nw0OFFeAxJUgV0YBAABACcQQAEjUbjF9Geqts2amQQurUK8GsSUWAAAAxRBDACBxts5iT+tQrwZZGwUAAAClEUMAIAO7xTSGkLfV9do0eGAT6giyMgoAAABKJYYAQEaa80RiFLkwjeJtgggCAAAAn4ghAJAhUaRo8SyQD9V15VwQAAAAqIkhAJAxUaQom+r6LYggAAAA8BUxBAAKIIpkbRNshwUAAADfJIYAQEGaKHJRXb9U15mJJG1dXb+JIAAAAPA8MQQACrRbTGMIeRnq1SIzE0nKqro+TJbbG6MAAACA/YghAFC43WI6r27/DLbQGrNNqA9FXzkPBAAAANoTQwCAT5rVIhehDiPnJjK4GD2uQ70V1to4AAAA4HBiCADwld1iGmNIjCJxK62ZiZxUDCD/jnerQAAAAKAbYggA8E3CyEkIIAAAANAjMQQA2Nu9MDIPttI6Rgwe6yCAAAAAwEmIIQDAQXaL6SzUq0V+DnUcOTOVb7oJdQD5Y7LcXhsHAAAAnI4YAgB0YreYzkMdRe7iSOlumuuP6lpPltuNkQAAAMAwxBAAoBfNllrz6vox1Ftq5bytVtzm6i58fFoBYusrAAAAGA8xBAA4mWb1SIwi34fPgSS17bVi7NhU11/Nn2+s+gAAAIBxE0MAgEHtFtMYQ2IUmTXX9/f+PBvg/6W7VR7RH819Hf/7ZLm98TcGAAAA6fn/7i6OyipEPeIAAAAASUVORK5CYII=;" parent="1" vertex="1">
          <mxGeometry x="1580.99" y="-20" width="39.01" height="43.37" as="geometry" />
        </mxCell>
        <mxCell id="4JsysY2rHyxk-apArtlw-1" value="Top-up Amount" style="rounded=0;whiteSpace=wrap;html=1;fillColor=#66FFFF;" parent="1" vertex="1">
          <mxGeometry x="1710" y="370" width="120" height="27.5" as="geometry" />
        </mxCell>
        <mxCell id="4JsysY2rHyxk-apArtlw-2" value="CS Top-ups pipeline" style="rounded=0;whiteSpace=wrap;html=1;fillColor=#66FFFF;" parent="1" vertex="1">
          <mxGeometry x="1710" y="283.75" width="120" height="27.5" as="geometry" />
        </mxCell>
        <mxCell id="4JsysY2rHyxk-apArtlw-3" value="Top-up Requested" style="rounded=0;whiteSpace=wrap;html=1;fillColor=#66FFFF;" parent="1" vertex="1">
          <mxGeometry x="1710" y="213.75" width="120" height="27.5" as="geometry" />
        </mxCell>
        <mxCell id="4JsysY2rHyxk-apArtlw-4" value="Automatically when closed won" style="rounded=0;whiteSpace=wrap;html=1;fillColor=#66FFFF;" parent="1" vertex="1">
          <mxGeometry x="1710" y="146.25" width="120" height="27.5" as="geometry" />
        </mxCell>
        <mxCell id="4JsysY2rHyxk-apArtlw-5" value="inhertied from Ticket name&amp;nbsp;" style="rounded=0;whiteSpace=wrap;html=1;fillColor=#66FFFF;" parent="1" vertex="1">
          <mxGeometry x="1710" y="76.25" width="120" height="27.5" as="geometry" />
        </mxCell>
        <mxCell id="6xNrg4ByUNT7dF6Kj_tv-1" value="&lt;b style=&quot;background-color: rgb(0, 153, 0);&quot;&gt;Done&lt;/b&gt;" style="text;html=1;align=center;verticalAlign=middle;whiteSpace=wrap;rounded=0;fillColor=#FFFFFF;" parent="1" vertex="1">
          <mxGeometry x="270" y="-690" width="40" height="30" as="geometry" />
        </mxCell>
        <mxCell id="6xNrg4ByUNT7dF6Kj_tv-2" value="&lt;b style=&quot;background-color: rgb(0, 153, 0);&quot;&gt;Done&lt;/b&gt;" style="text;html=1;align=center;verticalAlign=middle;whiteSpace=wrap;rounded=0;fillColor=#FFFFFF;" parent="1" vertex="1">
          <mxGeometry x="270" y="-520" width="40" height="30" as="geometry" />
        </mxCell>
        <mxCell id="6xNrg4ByUNT7dF6Kj_tv-3" value="&lt;b style=&quot;background-color: rgb(0, 153, 0);&quot;&gt;Done&lt;/b&gt;" style="text;html=1;align=center;verticalAlign=middle;whiteSpace=wrap;rounded=0;fillColor=#FFFFFF;" parent="1" vertex="1">
          <mxGeometry x="290" y="-480" width="40" height="30" as="geometry" />
        </mxCell>
        <mxCell id="6xNrg4ByUNT7dF6Kj_tv-4" value="&lt;b style=&quot;background-color: rgb(0, 153, 0);&quot;&gt;rejected&lt;/b&gt;" style="text;html=1;align=center;verticalAlign=middle;whiteSpace=wrap;rounded=0;fillColor=#FFFFFF;" parent="1" vertex="1">
          <mxGeometry x="250" y="-360" width="40" height="30" as="geometry" />
        </mxCell>
        <mxCell id="6xNrg4ByUNT7dF6Kj_tv-5" value="&lt;b style=&quot;background-color: rgb(210, 105, 255);&quot;&gt;Modified&lt;/b&gt;" style="text;html=1;align=center;verticalAlign=middle;whiteSpace=wrap;rounded=0;fillColor=#FFFFFF;" parent="1" vertex="1">
          <mxGeometry x="310" y="-400" width="40" height="30" as="geometry" />
        </mxCell>
        <mxCell id="6xNrg4ByUNT7dF6Kj_tv-7" value="&lt;b style=&quot;background-color: rgb(0, 153, 0);&quot;&gt;DONE&lt;br&gt;&lt;/b&gt;" style="text;html=1;align=center;verticalAlign=middle;whiteSpace=wrap;rounded=0;fillColor=#FFFFFF;" parent="1" vertex="1">
          <mxGeometry x="1820" y="387" width="40" height="30" as="geometry" />
        </mxCell>
        <mxCell id="6xNrg4ByUNT7dF6Kj_tv-9" value="&lt;b style=&quot;background-color: rgb(0, 153, 0);&quot;&gt;DONE&lt;br&gt;&lt;/b&gt;" style="text;html=1;align=center;verticalAlign=middle;whiteSpace=wrap;rounded=0;fillColor=#FFFFFF;" parent="1" vertex="1">
          <mxGeometry x="1840" y="281.25" width="40" height="30" as="geometry" />
        </mxCell>
        <mxCell id="6xNrg4ByUNT7dF6Kj_tv-10" value="&lt;b style=&quot;background-color: rgb(0, 153, 0);&quot;&gt;DONE&lt;br&gt;&lt;/b&gt;" style="text;html=1;align=center;verticalAlign=middle;whiteSpace=wrap;rounded=0;fillColor=#FFFFFF;" parent="1" vertex="1">
          <mxGeometry x="1840" y="222.5" width="40" height="30" as="geometry" />
        </mxCell>
        <mxCell id="6xNrg4ByUNT7dF6Kj_tv-11" value="&lt;b style=&quot;background-color: rgb(0, 153, 0);&quot;&gt;DONE&lt;br&gt;&lt;/b&gt;" style="text;html=1;align=center;verticalAlign=middle;whiteSpace=wrap;rounded=0;fillColor=#FFFFFF;" parent="1" vertex="1">
          <mxGeometry x="1840" y="76.25" width="40" height="30" as="geometry" />
        </mxCell>
        <mxCell id="6xNrg4ByUNT7dF6Kj_tv-12" value="&lt;b style=&quot;background-color: rgb(0, 153, 0);&quot;&gt;Done&lt;/b&gt;" style="text;html=1;align=center;verticalAlign=middle;whiteSpace=wrap;rounded=0;fillColor=#FFFFFF;" parent="1" vertex="1">
          <mxGeometry x="270" y="-280" width="40" height="30" as="geometry" />
        </mxCell>
        <mxCell id="6xNrg4ByUNT7dF6Kj_tv-13" value="&lt;b style=&quot;background-color: rgb(0, 153, 0);&quot;&gt;Done&lt;/b&gt;" style="text;html=1;align=center;verticalAlign=middle;whiteSpace=wrap;rounded=0;fillColor=#FFFFFF;" parent="1" vertex="1">
          <mxGeometry x="310" y="-170" width="40" height="30" as="geometry" />
        </mxCell>
        <mxCell id="jA3uucF8cTPupkvMydIX-6" value="" style="edgeStyle=orthogonalEdgeStyle;rounded=0;orthogonalLoop=1;jettySize=auto;html=1;entryX=0.5;entryY=0;entryDx=0;entryDy=0;" parent="1" source="jA3uucF8cTPupkvMydIX-1" target="jA3uucF8cTPupkvMydIX-8" edge="1">
          <mxGeometry relative="1" as="geometry">
            <mxPoint x="1860" y="-460" as="targetPoint" />
          </mxGeometry>
        </mxCell>
        <mxCell id="jA3uucF8cTPupkvMydIX-12" value="On Boarding Scheduled → Closed Won" style="edgeLabel;html=1;align=center;verticalAlign=middle;resizable=0;points=[];" parent="jA3uucF8cTPupkvMydIX-6" vertex="1" connectable="0">
          <mxGeometry x="-0.2259" y="-1" relative="1" as="geometry">
            <mxPoint as="offset" />
          </mxGeometry>
        </mxCell>
        <mxCell id="jA3uucF8cTPupkvMydIX-1" value="&lt;span style=&quot;font-size: 18px;&quot;&gt;&lt;b&gt;STIC DEALS&lt;/b&gt;&lt;/span&gt;&lt;div&gt;&lt;span style=&quot;font-size: 18px;&quot;&gt;(STIC - SALES)&lt;/span&gt;&lt;/div&gt;" style="rounded=0;whiteSpace=wrap;html=1;fillColor=#FF681C;" parent="1" vertex="1">
          <mxGeometry x="1770" y="-590" width="180" height="60" as="geometry" />
        </mxCell>
        <mxCell id="jA3uucF8cTPupkvMydIX-3" value="&lt;h1 style=&quot;margin-top: 0px;&quot;&gt;Client Endorsement Form&lt;/h1&gt;&lt;p&gt;For STIC BD AND STIC CS team&lt;/p&gt;" style="text;html=1;whiteSpace=wrap;overflow=hidden;rounded=0;" parent="1" vertex="1">
          <mxGeometry x="1745" y="-680" width="395" height="70" as="geometry" />
        </mxCell>
        <mxCell id="jA3uucF8cTPupkvMydIX-10" style="edgeStyle=orthogonalEdgeStyle;rounded=0;orthogonalLoop=1;jettySize=auto;html=1;entryX=0.042;entryY=0.475;entryDx=0;entryDy=0;entryPerimeter=0;" parent="1" source="jA3uucF8cTPupkvMydIX-8" target="jA3uucF8cTPupkvMydIX-21" edge="1">
          <mxGeometry relative="1" as="geometry">
            <mxPoint x="2000" y="-420" as="targetPoint" />
          </mxGeometry>
        </mxCell>
        <mxCell id="jA3uucF8cTPupkvMydIX-11" value="YES" style="edgeLabel;html=1;align=center;verticalAlign=middle;resizable=0;points=[];" parent="jA3uucF8cTPupkvMydIX-10" vertex="1" connectable="0">
          <mxGeometry x="0.0428" y="1" relative="1" as="geometry">
            <mxPoint x="-16" y="2" as="offset" />
          </mxGeometry>
        </mxCell>
        <mxCell id="jA3uucF8cTPupkvMydIX-17" value="" style="edgeStyle=orthogonalEdgeStyle;rounded=0;orthogonalLoop=1;jettySize=auto;html=1;" parent="1" source="jA3uucF8cTPupkvMydIX-8" target="jA3uucF8cTPupkvMydIX-16" edge="1">
          <mxGeometry relative="1" as="geometry" />
        </mxCell>
        <mxCell id="jA3uucF8cTPupkvMydIX-20" value="No" style="edgeLabel;html=1;align=center;verticalAlign=middle;resizable=0;points=[];" parent="jA3uucF8cTPupkvMydIX-17" vertex="1" connectable="0">
          <mxGeometry x="-0.3032" y="1" relative="1" as="geometry">
            <mxPoint as="offset" />
          </mxGeometry>
        </mxCell>
        <mxCell id="jA3uucF8cTPupkvMydIX-8" value="CEF*" style="rhombus;whiteSpace=wrap;html=1;fillColor=#293EFF;rounded=0;" parent="1" vertex="1">
          <mxGeometry x="1820" y="-460" width="80" height="80" as="geometry" />
        </mxCell>
        <mxCell id="jA3uucF8cTPupkvMydIX-19" style="edgeStyle=orthogonalEdgeStyle;rounded=0;orthogonalLoop=1;jettySize=auto;html=1;entryX=0.5;entryY=0;entryDx=0;entryDy=0;" parent="1" source="jA3uucF8cTPupkvMydIX-16" target="jA3uucF8cTPupkvMydIX-18" edge="1">
          <mxGeometry relative="1" as="geometry" />
        </mxCell>
        <mxCell id="jA3uucF8cTPupkvMydIX-16" value="Onboarding&lt;div&gt;(BD process)&lt;/div&gt;" style="whiteSpace=wrap;html=1;fillColor=#FF681C;rounded=0;" parent="1" vertex="1">
          <mxGeometry x="1820" y="-320" width="80" height="40" as="geometry" />
        </mxCell>
        <mxCell id="jA3uucF8cTPupkvMydIX-18" value="&lt;b&gt;STIC BD RENEWAL&lt;/b&gt;" style="whiteSpace=wrap;html=1;fillColor=#FF681C;rounded=0;" parent="1" vertex="1">
          <mxGeometry x="1820" y="-250" width="80" height="40" as="geometry" />
        </mxCell>
        <mxCell id="jA3uucF8cTPupkvMydIX-28" style="edgeStyle=orthogonalEdgeStyle;rounded=0;orthogonalLoop=1;jettySize=auto;html=1;exitX=1;exitY=0.5;exitDx=0;exitDy=0;" parent="1" source="jA3uucF8cTPupkvMydIX-8" target="jA3uucF8cTPupkvMydIX-27" edge="1">
          <mxGeometry relative="1" as="geometry" />
        </mxCell>
        <mxCell id="jA3uucF8cTPupkvMydIX-29" value="YES" style="edgeLabel;html=1;align=center;verticalAlign=middle;resizable=0;points=[];" parent="jA3uucF8cTPupkvMydIX-28" vertex="1" connectable="0">
          <mxGeometry x="-0.1922" y="-1" relative="1" as="geometry">
            <mxPoint x="-11" y="-14" as="offset" />
          </mxGeometry>
        </mxCell>
        <mxCell id="jA3uucF8cTPupkvMydIX-21" value="&lt;span&gt;Onboarding&lt;/span&gt;&lt;div&gt;&lt;span&gt;(CS process)&lt;/span&gt;&lt;/div&gt;" style="whiteSpace=wrap;html=1;fillColor=#FF681C;rounded=0;fontStyle=0" parent="1" vertex="1">
          <mxGeometry x="2010" y="-440" width="80" height="40" as="geometry" />
        </mxCell>
        <mxCell id="jA3uucF8cTPupkvMydIX-22" value="&lt;b&gt;STIC CS&lt;/b&gt;&lt;div&gt;&lt;b&gt;RENEWAL&lt;/b&gt;&lt;/div&gt;" style="whiteSpace=wrap;html=1;fillColor=#FF681C;rounded=0;" parent="1" vertex="1">
          <mxGeometry x="2120" y="-440" width="80" height="40" as="geometry" />
        </mxCell>
        <mxCell id="jA3uucF8cTPupkvMydIX-23" style="edgeStyle=orthogonalEdgeStyle;rounded=0;orthogonalLoop=1;jettySize=auto;html=1;entryX=0.042;entryY=0.523;entryDx=0;entryDy=0;entryPerimeter=0;" parent="1" source="jA3uucF8cTPupkvMydIX-21" target="jA3uucF8cTPupkvMydIX-22" edge="1">
          <mxGeometry relative="1" as="geometry" />
        </mxCell>
        <mxCell id="jA3uucF8cTPupkvMydIX-27" value="ALERT&amp;nbsp;&lt;div&gt;&lt;font style=&quot;font-size: 8px;&quot;&gt;(&lt;span style=&quot;background-color: initial;&quot;&gt;upon assignment)&lt;/span&gt;&lt;/font&gt;&lt;/div&gt;" style="whiteSpace=wrap;html=1;fillColor=#FF681C;rounded=0;fontStyle=1" parent="1" vertex="1">
          <mxGeometry x="2010" y="-380" width="80" height="40" as="geometry" />
        </mxCell>
        <mxCell id="jA3uucF8cTPupkvMydIX-31" value="&lt;h1 style=&quot;margin-top: 0px;&quot;&gt;Topup Ticket&lt;/h1&gt;&lt;p&gt;For STIC BD AND STIC CS team&lt;/p&gt;" style="text;html=1;whiteSpace=wrap;overflow=hidden;rounded=0;" parent="1" vertex="1">
          <mxGeometry x="2240" y="-670" width="395" height="70" as="geometry" />
        </mxCell>
        <mxCell id="jA3uucF8cTPupkvMydIX-32" value="" style="group" parent="1" vertex="1" connectable="0">
          <mxGeometry x="1560" y="430" width="290" height="320" as="geometry" />
        </mxCell>
        <mxCell id="Lj5jiR5ULHrEoqdRoK43-30" value="" style="edgeStyle=orthogonalEdgeStyle;rounded=0;orthogonalLoop=1;jettySize=auto;html=1;" parent="jA3uucF8cTPupkvMydIX-32" source="Lj5jiR5ULHrEoqdRoK43-16" target="Lj5jiR5ULHrEoqdRoK43-28" edge="1">
          <mxGeometry relative="1" as="geometry" />
        </mxCell>
        <mxCell id="Lj5jiR5ULHrEoqdRoK43-39" style="edgeStyle=orthogonalEdgeStyle;rounded=0;orthogonalLoop=1;jettySize=auto;html=1;entryX=0;entryY=0.5;entryDx=0;entryDy=0;" parent="jA3uucF8cTPupkvMydIX-32" source="Lj5jiR5ULHrEoqdRoK43-16" target="Lj5jiR5ULHrEoqdRoK43-32" edge="1">
          <mxGeometry relative="1" as="geometry" />
        </mxCell>
        <mxCell id="Lj5jiR5ULHrEoqdRoK43-40" style="edgeStyle=orthogonalEdgeStyle;rounded=0;orthogonalLoop=1;jettySize=auto;html=1;entryX=0;entryY=0.5;entryDx=0;entryDy=0;" parent="jA3uucF8cTPupkvMydIX-32" source="Lj5jiR5ULHrEoqdRoK43-16" target="Lj5jiR5ULHrEoqdRoK43-33" edge="1">
          <mxGeometry relative="1" as="geometry" />
        </mxCell>
        <mxCell id="Lj5jiR5ULHrEoqdRoK43-41" style="edgeStyle=orthogonalEdgeStyle;rounded=0;orthogonalLoop=1;jettySize=auto;html=1;entryX=0;entryY=0.5;entryDx=0;entryDy=0;" parent="jA3uucF8cTPupkvMydIX-32" source="Lj5jiR5ULHrEoqdRoK43-16" target="Lj5jiR5ULHrEoqdRoK43-34" edge="1">
          <mxGeometry relative="1" as="geometry" />
        </mxCell>
        <mxCell id="Lj5jiR5ULHrEoqdRoK43-42" style="edgeStyle=orthogonalEdgeStyle;rounded=0;orthogonalLoop=1;jettySize=auto;html=1;entryX=0;entryY=0.5;entryDx=0;entryDy=0;" parent="jA3uucF8cTPupkvMydIX-32" source="Lj5jiR5ULHrEoqdRoK43-16" target="Lj5jiR5ULHrEoqdRoK43-35" edge="1">
          <mxGeometry relative="1" as="geometry" />
        </mxCell>
        <mxCell id="Lj5jiR5ULHrEoqdRoK43-43" style="edgeStyle=orthogonalEdgeStyle;rounded=0;orthogonalLoop=1;jettySize=auto;html=1;entryX=0;entryY=0.5;entryDx=0;entryDy=0;" parent="jA3uucF8cTPupkvMydIX-32" source="Lj5jiR5ULHrEoqdRoK43-16" target="Lj5jiR5ULHrEoqdRoK43-36" edge="1">
          <mxGeometry relative="1" as="geometry" />
        </mxCell>
        <mxCell id="Lj5jiR5ULHrEoqdRoK43-44" style="edgeStyle=orthogonalEdgeStyle;rounded=0;orthogonalLoop=1;jettySize=auto;html=1;entryX=0;entryY=0.5;entryDx=0;entryDy=0;" parent="jA3uucF8cTPupkvMydIX-32" source="Lj5jiR5ULHrEoqdRoK43-16" target="Lj5jiR5ULHrEoqdRoK43-37" edge="1">
          <mxGeometry relative="1" as="geometry" />
        </mxCell>
        <mxCell id="Lj5jiR5ULHrEoqdRoK43-45" style="edgeStyle=orthogonalEdgeStyle;rounded=0;orthogonalLoop=1;jettySize=auto;html=1;entryX=0;entryY=0.5;entryDx=0;entryDy=0;" parent="jA3uucF8cTPupkvMydIX-32" source="Lj5jiR5ULHrEoqdRoK43-16" target="Lj5jiR5ULHrEoqdRoK43-38" edge="1">
          <mxGeometry relative="1" as="geometry" />
        </mxCell>
        <mxCell id="Lj5jiR5ULHrEoqdRoK43-16" value="STIC Deal type" style="rounded=0;whiteSpace=wrap;html=1;fillColor=#FF681C;" parent="jA3uucF8cTPupkvMydIX-32" vertex="1">
          <mxGeometry width="120" height="60" as="geometry" />
        </mxCell>
        <mxCell id="Lj5jiR5ULHrEoqdRoK43-28" value="New Deal" style="whiteSpace=wrap;html=1;rounded=0;" parent="jA3uucF8cTPupkvMydIX-32" vertex="1">
          <mxGeometry x="210" y="15" width="60" height="30" as="geometry" />
        </mxCell>
        <mxCell id="Lj5jiR5ULHrEoqdRoK43-32" value="Renewal" style="whiteSpace=wrap;html=1;rounded=0;" parent="jA3uucF8cTPupkvMydIX-32" vertex="1">
          <mxGeometry x="210" y="50" width="60" height="30" as="geometry" />
        </mxCell>
        <mxCell id="Lj5jiR5ULHrEoqdRoK43-33" value="Retop-up" style="whiteSpace=wrap;html=1;rounded=0;" parent="jA3uucF8cTPupkvMydIX-32" vertex="1">
          <mxGeometry x="210" y="90" width="60" height="30" as="geometry" />
        </mxCell>
        <mxCell id="Lj5jiR5ULHrEoqdRoK43-34" value="Upsell (add on)" style="whiteSpace=wrap;html=1;rounded=0;" parent="jA3uucF8cTPupkvMydIX-32" vertex="1">
          <mxGeometry x="210" y="130" width="60" height="30" as="geometry" />
        </mxCell>
        <mxCell id="Lj5jiR5ULHrEoqdRoK43-35" value="Cross Sell (departmental)" style="whiteSpace=wrap;html=1;rounded=0;" parent="jA3uucF8cTPupkvMydIX-32" vertex="1">
          <mxGeometry x="210" y="170" width="80" height="30" as="geometry" />
        </mxCell>
        <mxCell id="Lj5jiR5ULHrEoqdRoK43-36" value="Merchant" style="whiteSpace=wrap;html=1;rounded=0;" parent="jA3uucF8cTPupkvMydIX-32" vertex="1">
          <mxGeometry x="210" y="210" width="60" height="30" as="geometry" />
        </mxCell>
        <mxCell id="Lj5jiR5ULHrEoqdRoK43-37" value="TCV Top-up&amp;nbsp;" style="whiteSpace=wrap;html=1;rounded=0;" parent="jA3uucF8cTPupkvMydIX-32" vertex="1">
          <mxGeometry x="210" y="250" width="70" height="30" as="geometry" />
        </mxCell>
        <mxCell id="Lj5jiR5ULHrEoqdRoK43-38" value="TCV Retop-up" style="whiteSpace=wrap;html=1;rounded=0;" parent="jA3uucF8cTPupkvMydIX-32" vertex="1">
          <mxGeometry x="210" y="290" width="80" height="30" as="geometry" />
        </mxCell>
        <mxCell id="Lj5jiR5ULHrEoqdRoK43-29" value="" style="edgeStyle=orthogonalEdgeStyle;rounded=0;orthogonalLoop=1;jettySize=auto;html=1;" parent="jA3uucF8cTPupkvMydIX-32" source="Lj5jiR5ULHrEoqdRoK43-16" target="Lj5jiR5ULHrEoqdRoK43-28" edge="1">
          <mxGeometry relative="1" as="geometry" />
        </mxCell>
        <mxCell id="Lj5jiR5ULHrEoqdRoK43-22" value="Payment Terms" style="rounded=0;whiteSpace=wrap;html=1;fillColor=#FF681C;" parent="jA3uucF8cTPupkvMydIX-32" vertex="1">
          <mxGeometry y="80" width="120" height="60" as="geometry" />
        </mxCell>
        <mxCell id="jA3uucF8cTPupkvMydIX-33" value="&lt;span style=&quot;font-size: 18px;&quot;&gt;&lt;b&gt;STIC DEALS&lt;/b&gt;&lt;/span&gt;&lt;div&gt;&lt;span style=&quot;font-size: 18px;&quot;&gt;(CS - ONLY)&lt;/span&gt;&lt;/div&gt;" style="rounded=0;whiteSpace=wrap;html=1;fillColor=#FF681C;" parent="1" vertex="1">
          <mxGeometry x="2240" y="-590" width="180" height="60" as="geometry" />
        </mxCell>
        <mxCell id="jA3uucF8cTPupkvMydIX-34" value="&lt;b&gt;MANUAL on deal stage&lt;/b&gt;" style="text;html=1;align=center;verticalAlign=middle;whiteSpace=wrap;rounded=0;" parent="1" vertex="1">
          <mxGeometry x="900" y="173.75" width="60" height="30" as="geometry" />
        </mxCell>
        <mxCell id="BsVwOKBHNCDUtOOiNCOh-2" value="&lt;b style=&quot;background-color: rgb(0, 153, 0);&quot;&gt;DONE&lt;br&gt;&lt;/b&gt;" style="text;html=1;align=center;verticalAlign=middle;whiteSpace=wrap;rounded=0;fillColor=#FFFFFF;" vertex="1" parent="1">
          <mxGeometry x="1840" y="490" width="40" height="30" as="geometry" />
        </mxCell>
      </root>
    </mxGraphModel>
  </diagram>
</mxfile>
